<svg width="1024" height="1024" viewBox="0 0 1024 1024" fill="none" xmlns="http://www.w3.org/2000/svg">
<g clip-path="url(#clip0_19986_8445)">
<rect width="1024" height="1024" fill="#ACDC79"/>
<circle cx="130" cy="130" r="130" transform="matrix(-1 0 0 1 844.216 331.778)" fill="white"/>
<mask id="mask0_19986_8445" style="mask-type:alpha" maskUnits="userSpaceOnUse" x="584" y="331" width="261" height="261">
<circle cx="714.216" cy="461.778" r="130" fill="white"/>
</mask>
<g mask="url(#mask0_19986_8445)">
<ellipse cx="692.785" cy="461.778" rx="86.9032" ry="86.6667" fill="black"/>
</g>
<circle cx="309.771" cy="461.778" r="130" fill="white"/>
<mask id="mask1_19986_8445" style="mask-type:alpha" maskUnits="userSpaceOnUse" x="179" y="331" width="261" height="261">
<circle cx="309.771" cy="461.778" r="130" fill="white"/>
</mask>
<g mask="url(#mask1_19986_8445)">
<ellipse cx="331.674" cy="461.778" rx="86.9032" ry="86.6667" fill="black"/>
</g>
<ellipse cx="215.882" cy="685.667" rx="86.6667" ry="43.3333" fill="black" fill-opacity="0.08"/>
<ellipse cx="86.6667" cy="43.3333" rx="86.6667" ry="43.3333" transform="matrix(-1 0 0 1 894.771 642.333)" fill="black" fill-opacity="0.08"/>
<path d="M563.372 645.987C565.098 642.391 569.411 640.876 573.007 642.602C576.603 644.328 578.118 648.64 576.392 652.236L569.882 649.111C576.2 652.144 576.389 652.236 576.392 652.243L576.378 652.271C576.371 652.285 576.359 652.303 576.35 652.32C576.333 652.356 576.311 652.399 576.286 652.447C576.237 652.545 576.175 652.671 576.096 652.821C575.936 653.122 575.714 653.524 575.426 654.013C574.849 654.993 574 656.333 572.852 657.899C570.556 661.029 567.032 665.116 561.997 669.177C551.824 677.381 535.793 685.223 512.105 685.223C488.416 685.223 472.385 677.381 462.212 669.177C457.177 665.116 453.653 661.029 451.357 657.899C450.209 656.333 449.36 654.993 448.783 654.013C448.495 653.524 448.273 653.122 448.113 652.821C448.034 652.671 447.972 652.545 447.923 652.447C447.898 652.399 447.876 652.356 447.859 652.32C447.851 652.303 447.838 652.285 447.831 652.271L447.817 652.243C447.82 652.236 448.008 652.144 454.327 649.111L447.817 652.236C446.091 648.64 447.606 644.328 451.202 642.602C454.797 640.876 459.103 642.393 460.83 645.987L460.872 646.05C460.937 646.172 461.055 646.393 461.232 646.692C461.584 647.291 462.167 648.212 463.002 649.351C464.678 651.637 467.364 654.775 471.282 657.935C479.02 664.175 491.882 670.778 512.105 670.778C532.327 670.778 545.189 664.175 552.927 657.935C556.845 654.775 559.531 651.637 561.207 649.351C562.042 648.212 562.625 647.291 562.977 646.692C563.154 646.393 563.272 646.172 563.337 646.05L563.372 645.987Z" fill="black"/>
<path d="M643.799 237.931L788.243 245.153C808.161 246.15 823.503 263.11 822.507 283.028C821.51 302.945 804.55 318.287 784.632 317.291L640.188 310.069C620.27 309.072 604.929 292.112 605.925 272.194C606.922 252.277 623.881 236.935 643.799 237.931Z" fill="black" fill-opacity="0.08"/>
<path d="M380.188 237.931L235.743 245.153C215.826 246.15 200.484 263.11 201.48 283.028C202.477 302.945 219.437 318.287 239.355 317.291L383.799 310.069C403.717 309.072 419.058 292.112 418.062 272.194C417.065 252.277 400.106 236.935 380.188 237.931Z" fill="black" fill-opacity="0.08"/>
</g>
<defs>
<clipPath id="clip0_19986_8445">
<rect width="1024" height="1024" fill="white"/>
</clipPath>
</defs>
</svg>
