<svg width="140" height="44" viewBox="0 0 140 44" fill="none" xmlns="http://www.w3.org/2000/svg">
<path d="M137.377 6.70361L137.251 12.0302L133.508 12.181L133.055 23.8393L127.754 24.1157L127.276 12.4574L123.533 12.6584L123.683 6.72874L137.377 6.70361Z" fill="#86CB3C"/>
<path d="M123.319 6.72852C122.942 9.67659 122.62 12.6121 122.352 15.535C122.084 18.4496 121.828 21.3851 121.585 24.3416L116.435 24.7185L116.661 22.7838C116.493 22.9764 116.296 23.1439 116.07 23.2863C115.853 23.4287 115.618 23.5459 115.367 23.6381C115.116 23.7218 114.856 23.7846 114.588 23.8265C114.32 23.86 114.064 23.8726 113.822 23.8642C113.252 23.8558 112.716 23.7469 112.214 23.5376C111.711 23.3198 111.25 23.035 110.832 22.6833C110.413 22.3232 110.036 21.9086 109.701 21.4396C109.366 20.9622 109.081 20.4639 108.847 19.9446C108.621 19.417 108.445 18.8809 108.319 18.3366C108.202 17.7922 108.143 17.2645 108.143 16.7536C108.143 15.9999 108.156 15.221 108.181 14.417C108.214 13.6046 108.269 12.7922 108.344 11.9798C108.42 11.1674 108.516 10.3634 108.633 9.56771C108.759 8.77207 108.914 8.00992 109.098 7.28128C110.12 7.33153 111.146 7.37759 112.176 7.41947C113.206 7.46135 114.232 7.47391 115.254 7.45716C115.061 8.1858 114.868 8.91863 114.676 9.65565C114.492 10.3843 114.324 11.1213 114.173 11.8667C114.023 12.6037 113.901 13.3449 113.809 14.0903C113.717 14.8357 113.671 15.5895 113.671 16.3516C113.671 16.5275 113.679 16.7788 113.696 17.1054C113.713 17.432 113.755 17.7545 113.822 18.0727C113.897 18.391 114.006 18.6716 114.148 18.9144C114.299 19.149 114.508 19.2662 114.776 19.2662C115.095 19.2662 115.379 19.1322 115.631 18.8642C115.882 18.5878 116.104 18.2193 116.296 17.7587C116.489 17.298 116.652 16.7662 116.786 16.1632C116.929 15.5602 117.046 14.932 117.138 14.2788C117.239 13.6171 117.318 12.9513 117.377 12.2813C117.435 11.6113 117.477 10.9831 117.502 10.3969C117.536 9.80222 117.557 9.27039 117.565 8.80138C117.582 8.33237 117.59 7.96805 117.59 7.70842C117.59 7.54091 117.586 7.37759 117.578 7.21847C117.569 7.05934 117.557 6.89602 117.54 6.72852C118.085 6.74527 118.625 6.75783 119.161 6.7662C119.697 6.77458 120.237 6.77877 120.781 6.77877C121.2 6.77877 121.619 6.77877 122.038 6.77877C122.465 6.77039 122.892 6.75364 123.319 6.72852Z" fill="#86CB3C"/>
<path d="M107.465 14.7941C107.465 15.5563 107.377 16.2933 107.201 17.0052C107.025 17.7087 106.77 18.3703 106.435 18.9901C106.108 19.6099 105.706 20.1794 105.229 20.6986C104.76 21.2095 104.228 21.6492 103.633 22.0177C103.047 22.3862 102.406 22.6752 101.711 22.8846C101.016 23.0856 100.279 23.1861 99.5 23.1861C98.7462 23.1861 98.0259 23.0898 97.3392 22.8971C96.6608 22.7045 96.0242 22.4365 95.4296 22.0931C94.835 21.7413 94.2948 21.3226 93.809 20.8368C93.3316 20.3427 92.9212 19.7983 92.5778 19.2037C92.2428 18.6006 91.979 17.9557 91.7864 17.269C91.6021 16.5822 91.51 15.8661 91.51 15.1207C91.51 14.3921 91.5979 13.6802 91.7738 12.9851C91.9497 12.2815 92.201 11.6199 92.5276 11.0001C92.8626 10.3804 93.2646 9.81086 93.7336 9.29159C94.2026 8.77233 94.7261 8.32426 95.304 7.94737C95.8902 7.57049 96.5226 7.27736 97.201 7.06798C97.8794 6.8586 98.5954 6.75391 99.3492 6.75391C100.564 6.75391 101.669 6.94235 102.666 7.31923C103.671 7.69612 104.525 8.23632 105.229 8.93984C105.94 9.63498 106.489 10.4809 106.874 11.4775C107.268 12.4658 107.465 13.5713 107.465 14.7941ZM101.887 15.1207C101.887 14.7606 101.832 14.413 101.724 14.078C101.623 13.7346 101.472 13.4331 101.271 13.1735C101.07 12.9055 100.819 12.6919 100.518 12.5328C100.224 12.3653 99.8852 12.2815 99.5 12.2815C99.1063 12.2815 98.7546 12.3527 98.4447 12.4951C98.1348 12.6375 97.8668 12.8343 97.6407 13.0856C97.4229 13.3284 97.2554 13.6174 97.1381 13.9524C97.0209 14.279 96.9623 14.6266 96.9623 14.9951C96.9623 15.3469 97.0125 15.6986 97.113 16.0504C97.2135 16.4021 97.3643 16.7204 97.5653 17.0052C97.7663 17.2899 98.0134 17.5202 98.3065 17.6961C98.608 17.872 98.9556 17.9599 99.3492 17.9599C99.7428 17.9599 100.095 17.8846 100.404 17.7338C100.723 17.5747 100.991 17.3653 101.208 17.1057C101.426 16.8377 101.594 16.532 101.711 16.1886C101.828 15.8452 101.887 15.4893 101.887 15.1207Z" fill="#86CB3C"/>
<path d="M91.0578 12.3065C91.0578 12.9598 90.9991 13.5544 90.8819 14.0905C90.773 14.6181 90.5971 15.1039 90.3542 15.5477C90.1114 15.9916 89.7973 16.402 89.412 16.7789C89.0268 17.1558 88.5619 17.5159 88.0176 17.8593L91.0075 23.1859L85.3542 24.2915L83.4196 18.9397L81.8618 18.99L81.6357 24.2161H76.2336C76.2755 22.3065 76.3132 20.4054 76.3467 18.5126C76.3886 16.6198 76.4346 14.7186 76.4849 12.809C76.5016 11.8459 76.5184 10.8911 76.5352 9.94472C76.5519 8.99832 76.5854 8.04355 76.6357 7.0804C77.2219 6.86265 77.7998 6.68258 78.3693 6.5402C78.9388 6.39782 79.5083 6.28894 80.0779 6.21357C80.6558 6.12982 81.2378 6.07538 81.8241 6.05025C82.4187 6.01675 83.0259 6 83.6457 6C84.6005 6 85.5217 6.134 86.4095 6.40201C87.3057 6.66164 88.0971 7.05528 88.7839 7.58291C89.4707 8.11055 90.0192 8.76801 90.4296 9.55528C90.8484 10.3425 91.0578 11.2596 91.0578 12.3065ZM85.4296 12.7085C85.4296 12.3568 85.3794 12.0343 85.2789 11.7412C85.1867 11.4481 85.0444 11.1968 84.8517 10.9874C84.6675 10.7697 84.433 10.6022 84.1482 10.4849C83.8718 10.3593 83.5452 10.2965 83.1683 10.2965C83.0008 10.2965 82.8375 10.309 82.6784 10.3342C82.5192 10.3509 82.3643 10.3802 82.2135 10.4221L82.0125 15.0955H82.314C82.6742 15.0955 83.0385 15.0494 83.407 14.9573C83.7839 14.8652 84.1189 14.7228 84.412 14.5302C84.7135 14.3375 84.9564 14.0905 85.1407 13.7889C85.3333 13.4874 85.4296 13.1273 85.4296 12.7085Z" fill="#86CB3C"/>
<path d="M75.6181 12.8341C75.6181 13.6465 75.4967 14.3668 75.2538 14.9949C75.0109 15.623 74.6759 16.1758 74.2488 16.6532C73.83 17.1222 73.3359 17.52 72.7664 17.8467C72.1969 18.1649 71.5855 18.4287 70.9322 18.6381C70.2873 18.8391 69.6173 18.9899 68.9222 19.0904C68.227 19.1825 67.5444 19.2328 66.8744 19.2411V24.5929H61.0201C61.0201 23.6381 61.0201 22.7085 61.0201 21.8039C61.0285 20.8994 61.0327 20.0033 61.0327 19.1155C61.0411 18.2194 61.0453 17.319 61.0453 16.4145C61.0536 15.51 61.062 14.5761 61.0704 13.613C61.0871 12.5912 61.0913 11.5694 61.083 10.5477C61.0746 9.52589 61.0955 8.49574 61.1458 7.45722C62.2178 7.13896 63.2898 6.90026 64.3618 6.74113C65.4339 6.58201 66.5394 6.50244 67.6784 6.50244C68.3233 6.50244 68.9682 6.55688 69.6131 6.66576C70.258 6.76626 70.8736 6.92958 71.4598 7.15571C72.0545 7.38184 72.6031 7.6666 73.1056 8.00998C73.6165 8.34499 74.0562 8.747 74.4247 9.21601C74.7932 9.68502 75.0821 10.221 75.2915 10.824C75.5093 11.4271 75.6181 12.0971 75.6181 12.8341ZM70.0402 13.2612C70.0402 12.7168 69.8727 12.2939 69.5377 11.9924C69.2111 11.6825 68.784 11.5276 68.2563 11.5276C68.0804 11.5276 67.8962 11.5443 67.7036 11.5778C67.5193 11.6029 67.3434 11.6364 67.1759 11.6783L67.0252 15.3467C67.1424 15.3634 67.2555 15.3718 67.3644 15.3718C67.4732 15.3718 67.5863 15.3718 67.7036 15.3718C68.0051 15.3718 68.294 15.3215 68.5704 15.221C68.8551 15.1205 69.1064 14.9782 69.3242 14.7939C69.5419 14.6013 69.7136 14.3793 69.8392 14.1281C69.9732 13.8684 70.0402 13.5795 70.0402 13.2612Z" fill="#86CB3C"/>
<path d="M60.1658 17.9852C60.1658 19.1326 59.9648 20.125 59.5628 20.9626C59.1692 21.7917 58.6248 22.4785 57.9296 23.0229C57.2429 23.5589 56.4347 23.9567 55.505 24.2163C54.5838 24.4676 53.5913 24.5932 52.5276 24.5932C52.1173 24.5932 51.665 24.5388 51.1709 24.4299C50.6851 24.321 50.191 24.187 49.6884 24.0279C49.1859 23.8604 48.7002 23.6845 48.2312 23.5002C47.7705 23.3076 47.3601 23.1276 47 22.96L47.5528 18.0354C48.2647 18.4626 49.0519 18.7892 49.9146 19.0153C50.7856 19.2331 51.6399 19.342 52.4774 19.342C52.6365 19.342 52.8291 19.3378 53.0553 19.3294C53.2814 19.3126 53.495 19.275 53.696 19.2163C53.9054 19.1493 54.0812 19.053 54.2236 18.9274C54.366 18.8018 54.4372 18.6217 54.4372 18.3872C54.4372 18.2281 54.3869 18.0941 54.2864 17.9852C54.1859 17.8679 54.0561 17.7758 53.897 17.7088C53.7379 17.6334 53.5578 17.579 53.3568 17.5455C53.1558 17.5036 52.959 17.4743 52.7663 17.4575C52.5737 17.4408 52.3936 17.4324 52.2261 17.4324C52.0586 17.4324 51.9246 17.4324 51.8241 17.4324C51.1039 17.4324 50.4464 17.3193 49.8518 17.0932C49.2655 16.8671 48.7588 16.5488 48.3317 16.1384C47.9129 15.7197 47.5863 15.2172 47.3518 14.6309C47.1173 14.0363 47 13.3788 47 12.6585C47 11.6703 47.1968 10.7867 47.5905 10.0078C47.9925 9.22052 48.5243 8.55469 49.1859 8.0103C49.8559 7.45754 50.6223 7.03459 51.4849 6.74146C52.3476 6.44832 53.2395 6.30176 54.1608 6.30176C54.5712 6.30176 54.9941 6.31851 55.4296 6.35201C55.8652 6.37713 56.2965 6.42739 56.7236 6.50276C57.1591 6.57814 57.5821 6.67445 57.9925 6.79171C58.4028 6.90896 58.7923 7.05553 59.1608 7.23141L58.6834 12.3319C58.1139 12.1393 57.5151 11.9801 56.8869 11.8545C56.2672 11.7205 55.66 11.6535 55.0653 11.6535C54.9564 11.6535 54.8141 11.6577 54.6382 11.6661C54.4707 11.6661 54.2906 11.6786 54.098 11.7038C53.9137 11.7205 53.7253 11.7498 53.5327 11.7917C53.34 11.8336 53.1683 11.8922 53.0176 11.9676C52.8668 12.0346 52.7454 12.1267 52.6533 12.244C52.5611 12.3612 52.5193 12.4994 52.5276 12.6585C52.536 12.8428 52.603 12.9852 52.7286 13.0857C52.8626 13.1862 53.0302 13.2616 53.2312 13.3118C53.4405 13.3537 53.6667 13.3746 53.9095 13.3746C54.1608 13.3746 54.4079 13.3704 54.6508 13.3621C54.8936 13.3453 55.1198 13.3327 55.3291 13.3244C55.5385 13.3076 55.7102 13.3034 55.8442 13.3118C56.5142 13.3537 57.1173 13.4961 57.6533 13.7389C58.1893 13.9818 58.6415 14.3043 59.01 14.7063C59.3869 15.1083 59.6717 15.5899 59.8643 16.151C60.0653 16.7038 60.1658 17.3152 60.1658 17.9852Z" fill="#86CB3C"/>
<path d="M122.76 34.6861C122.76 35.2598 122.66 35.7623 122.459 36.1936C122.262 36.6208 121.99 36.9767 121.642 37.2615C121.299 37.5462 120.894 37.7598 120.43 37.9022C119.969 38.0445 119.473 38.1157 118.941 38.1157C118.736 38.1157 118.51 38.0885 118.263 38.0341C118.02 37.9796 117.773 37.9126 117.521 37.8331C117.27 37.7493 117.027 37.6614 116.793 37.5693C116.562 37.4729 116.357 37.3829 116.177 37.2992L116.453 34.7112C116.809 34.9248 117.203 35.0881 117.634 35.2012C118.07 35.31 118.497 35.3645 118.916 35.3645C118.995 35.3645 119.092 35.3624 119.205 35.3582C119.318 35.3498 119.425 35.331 119.525 35.3017C119.63 35.2682 119.718 35.22 119.789 35.1572C119.86 35.0944 119.896 35.0043 119.896 34.8871C119.896 34.8075 119.871 34.7405 119.82 34.6861C119.77 34.6275 119.705 34.5814 119.626 34.5479C119.546 34.5102 119.456 34.483 119.356 34.4662C119.255 34.4453 119.157 34.4306 119.06 34.4223C118.964 34.4139 118.874 34.4097 118.79 34.4097C118.706 34.4097 118.639 34.4097 118.589 34.4097C118.229 34.4097 117.9 34.3469 117.603 34.2213C117.31 34.0956 117.057 33.9218 116.843 33.6999C116.634 33.4738 116.47 33.2079 116.353 32.9022C116.236 32.5923 116.177 32.2573 116.177 31.8971C116.177 31.403 116.276 30.9612 116.472 30.5718C116.673 30.1781 116.939 29.8452 117.27 29.573C117.605 29.2966 117.988 29.0852 118.42 28.9386C118.851 28.792 119.297 28.7188 119.758 28.7188C119.963 28.7188 120.174 28.7271 120.392 28.7439C120.61 28.7564 120.825 28.7816 121.039 28.8193C121.257 28.8569 121.468 28.9051 121.673 28.9637C121.879 29.0224 122.073 29.0956 122.258 29.1836L122.019 31.7338C121.734 31.6375 121.435 31.5579 121.121 31.4951C120.811 31.4281 120.507 31.3946 120.21 31.3946C120.155 31.3946 120.084 31.3967 119.996 31.4009C119.912 31.4009 119.822 31.4072 119.726 31.4198C119.634 31.4281 119.54 31.4428 119.443 31.4637C119.347 31.4847 119.261 31.514 119.186 31.5517C119.111 31.5852 119.05 31.6312 119.004 31.6899C118.958 31.7485 118.937 31.8176 118.941 31.8971C118.945 31.9893 118.979 32.0646 119.041 32.1233C119.108 32.1777 119.192 32.2217 119.293 32.2552C119.397 32.2845 119.51 32.3054 119.632 32.318C119.758 32.3306 119.881 32.3389 120.002 32.3431C120.124 32.3431 120.237 32.3431 120.342 32.3431C120.446 32.3389 120.532 32.341 120.599 32.3494C120.934 32.3703 121.236 32.4415 121.504 32.563C121.772 32.6844 121.998 32.8456 122.182 33.0466C122.371 33.2476 122.513 33.4884 122.609 33.769C122.71 34.0454 122.76 34.3511 122.76 34.6861Z" fill="#86CB3C"/>
<path d="M115.982 29.0454L115.92 31.7087L114.048 31.7841L113.57 37.7389L110.92 37.8771L110.932 31.9223L109.06 32.0228L109.136 29.058L115.982 29.0454Z" fill="#86CB3C"/>
<path d="M108.903 29.1836L108.212 37.7389L105.562 37.8771V29.3595L108.903 29.1836Z" fill="#86CB3C"/>
<path d="M105.172 35.7917C105.172 36.1393 105.107 36.4387 104.977 36.69C104.852 36.9412 104.682 37.1548 104.469 37.3307C104.255 37.5066 104.008 37.651 103.727 37.7641C103.451 37.873 103.162 37.9588 102.861 38.0216C102.559 38.0845 102.255 38.1263 101.95 38.1473C101.648 38.1682 101.366 38.1787 101.102 38.1787C100.842 38.1787 100.572 38.1682 100.292 38.1473C100.015 38.1305 99.7387 38.0991 99.4624 38.053C99.186 38.007 98.9138 37.9463 98.6458 37.8709C98.3778 37.7913 98.1244 37.6929 97.8857 37.5757L97.8732 29.4852C98.1077 29.3889 98.3568 29.303 98.6207 29.2277C98.8845 29.1481 99.1525 29.0832 99.4247 29.0329C99.7011 28.9785 99.9753 28.9387 100.248 28.9136C100.52 28.8843 100.784 28.8696 101.039 28.8696C101.336 28.8696 101.636 28.8885 101.937 28.9262C102.243 28.9639 102.536 29.0267 102.817 29.1146C103.097 29.2025 103.359 29.3177 103.602 29.4601C103.845 29.5983 104.056 29.77 104.236 29.9752C104.42 30.1803 104.563 30.419 104.663 30.6912C104.768 30.9634 104.82 31.2775 104.82 31.6334C104.82 31.868 104.787 32.0878 104.72 32.293C104.653 32.4982 104.557 32.6824 104.431 32.8458C104.305 33.0091 104.152 33.1494 103.972 33.2666C103.792 33.3797 103.589 33.4634 103.363 33.5179C103.635 33.5891 103.882 33.6937 104.104 33.8319C104.33 33.9701 104.521 34.1376 104.676 34.3345C104.835 34.5313 104.957 34.7532 105.04 35.0003C105.128 35.2474 105.172 35.5112 105.172 35.7917ZM101.981 32.2113C101.981 32.0899 101.956 31.9873 101.906 31.9035C101.856 31.8156 101.793 31.7444 101.717 31.69C101.646 31.6355 101.567 31.5958 101.479 31.5706C101.395 31.5455 101.32 31.5329 101.253 31.5329C101.169 31.5329 101.087 31.5455 101.008 31.5706C100.928 31.5958 100.851 31.6251 100.775 31.6586L100.737 33.053C100.834 33.053 100.953 33.0447 101.096 33.0279C101.238 33.0112 101.374 32.9756 101.504 32.9211C101.638 32.8625 101.751 32.7788 101.843 32.6699C101.935 32.5568 101.981 32.404 101.981 32.2113ZM101.089 34.2591C100.968 34.2591 100.851 34.2716 100.737 34.2968L100.712 35.7289C100.775 35.7415 100.836 35.7541 100.895 35.7666C100.957 35.775 101.018 35.7792 101.077 35.7792C101.165 35.7792 101.261 35.7708 101.366 35.7541C101.47 35.7331 101.569 35.6954 101.661 35.641C101.753 35.5824 101.828 35.5049 101.887 35.4086C101.95 35.3123 101.981 35.1845 101.981 35.0254C101.981 34.8663 101.95 34.7365 101.887 34.636C101.828 34.5355 101.755 34.458 101.667 34.4035C101.579 34.3449 101.483 34.3072 101.378 34.2905C101.274 34.2695 101.177 34.2591 101.089 34.2591Z" fill="#86CB3C"/>
<path d="M97.7286 37.4875L94.613 37.8895L94.2361 36.4699H92.804L92.4899 37.8895L89.2864 37.5754L91.7864 29.2086L95.2788 29.0327L97.7286 37.4875ZM94.01 34.5478L93.5326 32.3619L93.0678 34.5478H94.01Z" fill="#86CB3C"/>
<path d="M89.211 38.0278L86.0703 38.1785L86.0452 35.2765H84.6005L84.5126 38.0278H81.6985L81.9372 29.1961L84.9271 29.3343L84.7387 33.8444H86.1332L86.1457 28.9951L89.01 29.0705L89.211 38.0278Z" fill="#86CB3C"/>
<path d="M78.8593 33.0403C78.8593 33.6266 78.7839 34.1563 78.6332 34.6295C78.4824 35.0985 78.2709 35.5173 77.9987 35.8858C77.7307 36.2501 77.4104 36.5642 77.0377 36.828C76.665 37.0918 76.2567 37.3096 75.8128 37.4812C75.3689 37.6488 74.8957 37.7744 74.3932 37.8581C73.8949 37.9377 73.3819 37.9775 72.8543 37.9775C72.6574 37.9775 72.4648 37.9733 72.2764 37.9649C72.0879 37.9524 71.8953 37.9356 71.6985 37.9147L71.8744 29.485C72.335 29.3385 72.8082 29.2359 73.294 29.1772C73.7839 29.1144 74.2697 29.083 74.7512 29.083C75.3501 29.083 75.9007 29.173 76.4033 29.3531C76.9058 29.5332 77.3392 29.7928 77.7035 30.132C78.0678 30.4712 78.3505 30.8858 78.5515 31.3757C78.7567 31.8657 78.8593 32.4205 78.8593 33.0403ZM76.2839 33.4423C76.2881 33.2162 76.263 32.9984 76.2085 32.789C76.1583 32.5797 76.0724 32.3954 75.951 32.2363C75.8337 32.073 75.683 31.9431 75.4987 31.8468C75.3145 31.7463 75.0946 31.6919 74.8392 31.6835L74.5879 35.578C74.8392 35.5403 75.0674 35.4586 75.2726 35.333C75.4778 35.2032 75.6537 35.0462 75.8002 34.8619C75.951 34.6735 76.0662 34.4662 76.1457 34.24C76.2295 34.0097 76.2755 33.7731 76.2839 33.5302V33.4423Z" fill="#86CB3C"/>
<path d="M71.3028 33.5929C71.3028 33.9739 71.2589 34.3424 71.1709 34.6984C71.083 35.0501 70.9553 35.381 70.7878 35.6908C70.6244 36.0007 70.4234 36.2855 70.1847 36.5451C69.9502 36.8006 69.6843 37.0204 69.387 37.2047C69.0939 37.3889 68.7735 37.5334 68.4259 37.6381C68.0784 37.7386 67.7099 37.7888 67.3204 37.7888C66.9435 37.7888 66.5834 37.7407 66.24 37.6444C65.9008 37.548 65.5826 37.414 65.2852 37.2424C64.9879 37.0665 64.7178 36.8571 64.4749 36.6142C64.2362 36.3671 64.031 36.0949 63.8594 35.7976C63.6919 35.4961 63.5599 35.1737 63.4636 34.8303C63.3715 34.4869 63.3254 34.1289 63.3254 33.7562C63.3254 33.3918 63.3694 33.0359 63.4573 32.6883C63.5453 32.3366 63.6709 32.0058 63.8342 31.6959C64.0017 31.386 64.2027 31.1012 64.4372 30.8416C64.6718 30.582 64.9335 30.3579 65.2224 30.1695C65.5156 29.981 65.8317 29.8345 66.1709 29.7298C66.5101 29.6251 66.8682 29.5728 67.245 29.5728C67.8522 29.5728 68.405 29.667 68.9033 29.8554C69.4058 30.0439 69.833 30.314 70.1847 30.6657C70.5407 31.0133 70.815 31.4362 71.0076 31.9346C71.2044 32.4287 71.3028 32.9815 71.3028 33.5929ZM68.5139 33.7562C68.5139 33.5761 68.4867 33.4023 68.4322 33.2348C68.382 33.0631 68.3066 32.9124 68.2061 32.7826C68.1056 32.6485 67.98 32.5418 67.8292 32.4622C67.6826 32.3784 67.513 32.3366 67.3204 32.3366C67.1236 32.3366 66.9477 32.3722 66.7928 32.4434C66.6378 32.5145 66.5038 32.613 66.3908 32.7386C66.2819 32.86 66.1981 33.0045 66.1395 33.172C66.0809 33.3353 66.0516 33.5091 66.0516 33.6934C66.0516 33.8692 66.0767 34.0451 66.1269 34.221C66.1772 34.3969 66.2526 34.556 66.3531 34.6984C66.4536 34.8408 66.5771 34.9559 66.7237 35.0439C66.8744 35.1318 67.0482 35.1758 67.245 35.1758C67.4419 35.1758 67.6177 35.1381 67.7727 35.0627C67.9318 34.9831 68.0658 34.8784 68.1747 34.7486C68.2836 34.6146 68.3673 34.4618 68.4259 34.2901C68.4846 34.1184 68.5139 33.9404 68.5139 33.7562Z" fill="#86CB3C"/>
<path d="M63.0992 33.5929C63.0992 33.9739 63.0552 34.3424 62.9673 34.6984C62.8794 35.0501 62.7516 35.381 62.5841 35.6908C62.4208 36.0007 62.2198 36.2855 61.9811 36.5451C61.7466 36.8006 61.4807 37.0204 61.1834 37.2047C60.8903 37.3889 60.5699 37.5334 60.2223 37.6381C59.8748 37.7386 59.5062 37.7888 59.1168 37.7888C58.7399 37.7888 58.3798 37.7407 58.0364 37.6444C57.6972 37.548 57.3789 37.414 57.0816 37.2424C56.7843 37.0665 56.5142 36.8571 56.2713 36.6142C56.0326 36.3671 55.8274 36.0949 55.6557 35.7976C55.4882 35.4961 55.3563 35.1737 55.26 34.8303C55.1679 34.4869 55.1218 34.1289 55.1218 33.7562C55.1218 33.3918 55.1658 33.0359 55.2537 32.6883C55.3417 32.3366 55.4673 32.0058 55.6306 31.6959C55.7981 31.386 55.9991 31.1012 56.2336 30.8416C56.4681 30.582 56.7299 30.3579 57.0188 30.1695C57.3119 29.981 57.6281 29.8345 57.9673 29.7298C58.3065 29.6251 58.6645 29.5728 59.0414 29.5728C59.6486 29.5728 60.2014 29.667 60.6997 29.8554C61.2022 30.0439 61.6294 30.314 61.9811 30.6657C62.3371 31.0133 62.6114 31.4362 62.804 31.9346C63.0008 32.4287 63.0992 32.9815 63.0992 33.5929ZM60.3103 33.7562C60.3103 33.5761 60.283 33.4023 60.2286 33.2348C60.1784 33.0631 60.103 32.9124 60.0025 32.7826C59.902 32.6485 59.7763 32.5418 59.6256 32.4622C59.479 32.3784 59.3094 32.3366 59.1168 32.3366C58.92 32.3366 58.7441 32.3722 58.5892 32.4434C58.4342 32.5145 58.3002 32.613 58.1872 32.7386C58.0783 32.86 57.9945 33.0045 57.9359 33.172C57.8773 33.3353 57.848 33.5091 57.848 33.6934C57.848 33.8692 57.8731 34.0451 57.9233 34.221C57.9736 34.3969 58.049 34.556 58.1495 34.6984C58.25 34.8408 58.3735 34.9559 58.5201 35.0439C58.6708 35.1318 58.8446 35.1758 59.0414 35.1758C59.2382 35.1758 59.4141 35.1381 59.5691 35.0627C59.7282 34.9831 59.8622 34.8784 59.9711 34.7486C60.0799 34.6146 60.1637 34.4618 60.2223 34.2901C60.281 34.1184 60.3103 33.9404 60.3103 33.7562Z" fill="#86CB3C"/>
<path d="M54.8518 36.7465C54.6549 36.9936 54.4121 37.2093 54.1231 37.3935C53.8342 37.5778 53.5243 37.7306 53.1935 37.852C52.8626 37.9735 52.5235 38.0635 52.1759 38.1221C51.8283 38.185 51.4975 38.2164 51.1834 38.2164C50.5762 38.2164 50.0172 38.1075 49.5063 37.8897C48.9954 37.672 48.5536 37.3726 48.1809 36.9915C47.8124 36.6062 47.5235 36.154 47.3141 35.6347C47.1047 35.1154 47 34.5564 47 33.9576C47 33.5011 47.0523 33.0551 47.157 32.6196C47.2617 32.1799 47.4104 31.7675 47.603 31.3822C47.7998 30.9928 48.0385 30.6368 48.3191 30.3144C48.5997 29.9877 48.9179 29.7072 49.2739 29.4727C49.6298 29.2381 50.0193 29.056 50.4422 28.9262C50.8652 28.7964 51.3174 28.7314 51.799 28.7314C51.9791 28.7314 52.1717 28.7398 52.3769 28.7566C52.5821 28.7691 52.7852 28.7943 52.9862 28.8319C53.1914 28.8654 53.3903 28.9136 53.5829 28.9764C53.7755 29.0392 53.9514 29.1167 54.1106 29.2088L53.9347 31.6083C53.7002 31.5204 53.4573 31.4618 53.206 31.4325C52.959 31.3989 52.7161 31.3822 52.4774 31.3822C52.1424 31.3822 51.8283 31.4345 51.5352 31.5392C51.2462 31.6397 50.9929 31.7863 50.7751 31.9789C50.5616 32.1716 50.392 32.4061 50.2663 32.6825C50.1407 32.9588 50.0779 33.2708 50.0779 33.6184C50.0779 33.8361 50.1072 34.0476 50.1658 34.2528C50.2245 34.4538 50.3124 34.6339 50.4296 34.793C50.5511 34.9479 50.6997 35.0736 50.8756 35.1699C51.0557 35.2662 51.263 35.3144 51.4975 35.3144C51.6566 35.3144 51.8199 35.2934 51.9874 35.2515C52.1591 35.2097 52.3057 35.1385 52.4271 35.038L52.4523 34.548L50.9447 34.5229L51.0201 32.6385C51.6441 32.6175 52.268 32.6008 52.892 32.5882C53.5159 32.5715 54.1441 32.5505 54.7764 32.5254L54.8518 36.7465Z" fill="#86CB3C"/>
<path d="M30.1717 14.9683C30.3003 14.5457 30.3243 13.6317 29.9457 12.4735C29.5209 11.1736 28.1873 9.88301 28.0112 9.32461C27.8826 8.91546 28.0039 8.40128 28.5878 8.12729C29.1717 7.85333 29.6156 7.79914 29.7964 7.73828C29.9773 7.67744 30.0825 7.5486 30.0885 7.4095C30.0946 7.2704 29.9799 7.10318 29.7286 6.93658C29.4773 6.76998 29.0373 6.53361 28.6466 6.45086C28.029 6.32087 27.2121 6.29261 26.5123 6.66596C25.2814 7.32209 24.5079 8.37883 23.9964 10.1665C23.4848 11.9541 23.8533 13.3459 24.6028 14.2724C25.5408 15.4325 26.3458 15.8202 27.6299 16.0656C29.0765 16.3422 29.929 15.7651 30.1709 14.9683L30.1717 14.9683Z" fill="#ACDC79"/>
<path d="M15.8624 13.102C15.8308 13.4754 16.7387 14.3023 18.3865 14.4917C20.0342 14.681 22.1972 14.1724 22.7384 13.0633C23.2796 11.9542 23.7599 9.86385 23.7353 8.22679C23.7134 6.74942 23.1258 5.26497 22.8476 4.77617C22.6938 4.50579 22.293 3.99808 21.9338 4.12647C21.5988 4.24531 21.5322 4.70717 21.3794 5.08958C21.2266 5.47198 20.488 6.89537 19.818 7.72015C19.148 8.54491 17.395 10.0457 16.9724 10.5962C16.5497 11.1467 15.9531 12.029 15.8616 13.102L15.8624 13.102Z" fill="#ACDC79"/>
<path d="M22.713 15.3033C23.8207 15.4106 25.9498 15.3353 26.3279 13.2853C26.7167 11.1731 26.0902 11.1663 26.3896 9.45298C26.6891 7.7397 27.1317 7.13251 27.7825 6.66373C28.4333 6.19494 29.0582 5.92493 29.3347 5.76545C29.6254 5.59738 30.0793 5.33597 30.0359 4.97656C29.9926 4.61715 29.3128 4.28185 28.4276 4.09744C27.5423 3.91301 25.7693 3.96357 24.5877 4.48311C23.0539 5.15688 21.8703 6.42974 21.1375 7.56762C20.4047 8.70549 19.9431 10.4974 19.9033 11.7988C19.8634 13.1002 20.3343 15.0732 22.713 15.3033Z" fill="#ACDC79"/>
<path d="M11.6864 30.6929L20.6038 33.0636L20.7786 37.1025L20.2892 38.6755C20.0603 39.4111 19.3795 39.9123 18.6091 39.9123H15.6379C14.8516 39.9123 14.1607 39.3905 13.9456 38.6342L11.6864 30.6929Z" fill="#ACDC79"/>
<path d="M11.6864 30.6929L20.6038 33.0636L20.7786 37.1025L20.2892 38.6755C20.0603 39.4111 19.3795 39.9123 18.6091 39.9123H15.6379C14.8516 39.9123 14.1607 39.3905 13.9456 38.6342L11.6864 30.6929Z" fill="black" fill-opacity="0.08"/>
<path d="M34.3916 30.7808L25.4743 33.1515L25.2994 37.1904L25.7888 38.7634C26.0177 39.499 26.6985 40.0001 27.4689 40.0001H30.4401C31.2264 40.0001 31.9173 39.4784 32.1324 38.7221L34.3916 30.7808Z" fill="#ACDC79"/>
<path d="M34.3916 30.7808L25.4743 33.1515L25.2994 37.1904L25.7888 38.7634C26.0177 39.499 26.6985 40.0001 27.4689 40.0001H30.4401C31.2264 40.0001 31.9173 39.4784 32.1324 38.7221L34.3916 30.7808Z" fill="black" fill-opacity="0.08"/>
<path d="M23.0606 37.2306C29.5772 37.2306 34.9348 34.398 34.9348 28.0664C34.9348 21.7348 31.6173 7.77588 23.0606 7.77588C14.5039 7.77588 11.1865 21.7348 11.1865 28.0664C11.1865 34.398 16.5441 37.2306 23.0606 37.2306Z" fill="#ACDC79"/>
<path opacity="0.1" d="M11.2195 26.9043C11.6813 32.6387 16.8437 35.2167 23.0603 35.2168C29.2738 35.2168 34.4337 32.6413 34.9001 26.9131C34.9221 27.3197 34.9343 27.7054 34.9343 28.0664C34.9343 34.398 29.5768 37.2305 23.0603 37.2305C16.5439 37.2304 11.1863 34.398 11.1863 28.0664C11.1863 27.7028 11.1972 27.3141 11.2195 26.9043Z" fill="black"/>
<path d="M41.8263 25.8802C42.1373 26.7095 42.1405 27.6339 41.8274 28.471C41.5144 29.308 40.905 30.0045 40.1255 30.4281C39.3457 30.8523 38.4634 30.9586 37.6406 30.8102C37.3885 30.7536 37.1372 30.6869 36.8954 30.6151C34.7047 29.9512 32.93 28.7938 31.4177 27.4716C29.9144 26.1507 28.5532 24.6829 27.3556 23.3009C27.2342 23.162 27.0901 22.9986 27.0492 22.9555C26.3404 22.2007 25.9586 21.1609 25.988 20.0649C26.0174 18.969 26.4555 17.9066 27.2058 17.1115C27.9562 16.3163 28.9573 15.8536 29.9891 15.8251C31.0209 15.7966 31.9987 16.2046 32.7075 16.9594C32.9336 17.2027 33.0516 17.342 33.1892 17.4982C34.3337 18.8187 35.4117 19.9659 36.5744 20.9895C37.7258 22.0022 38.8289 22.9629 39.8598 23.7233C39.9733 23.8072 40.0881 23.8895 40.1995 23.9681C40.9188 24.3935 41.5156 25.0501 41.8263 25.8802Z" fill="#ACDC79"/>
<path d="M31.1678 18.3468L33.9201 18.3468C33.1381 17.428 32.4892 16.3915 31.9947 15.2711L31.9542 15.1792L31.1678 18.3468Z" fill="#ACDC79"/>
<path d="M4.17367 25.8802C3.86274 26.7095 3.85954 27.6339 4.17257 28.471C4.48562 29.308 5.09501 30.0045 5.87455 30.4281C6.65434 30.8523 7.53655 30.9586 8.35944 30.8102C8.61146 30.7536 8.8628 30.6869 9.10463 30.6151C11.2953 29.9512 13.07 28.7938 14.5823 27.4716C16.0856 26.1507 17.4468 24.6829 18.6444 23.3009C18.7658 23.162 18.9099 22.9986 18.9508 22.9555C19.6596 22.2007 20.0414 21.1609 20.012 20.0649C19.9826 18.969 19.5445 17.9066 18.7942 17.1115C18.0438 16.3163 17.0427 15.8536 16.0109 15.8251C14.9791 15.7966 14.0013 16.2046 13.2925 16.9594C13.0664 17.2027 12.9484 17.342 12.8108 17.4982C11.6663 18.8187 10.5883 19.9659 9.42565 20.9895C8.27417 22.0022 7.17114 22.9629 6.14024 23.7233C6.02674 23.8072 5.91188 23.8895 5.8005 23.9681C5.08123 24.3935 4.48436 25.0501 4.17367 25.8802Z" fill="#ACDC79"/>
<path d="M14.8322 18.3468L12.0799 18.3468C12.8619 17.428 13.5108 16.3915 14.0053 15.2711L14.0458 15.1792L14.8322 18.3468Z" fill="#ACDC79"/>
<path d="M20.6881 10.8692L20.4705 10.7895C19.7284 10.5178 18.9096 10.5464 18.1883 10.8692" stroke="black" stroke-opacity="0.08" stroke-width="1.25875" stroke-linecap="round"/>
<path d="M27.6875 10.8692L27.4699 10.7895C26.7278 10.5178 25.909 10.5464 25.1877 10.8692" stroke="black" stroke-opacity="0.08" stroke-width="1.25875" stroke-linecap="round"/>
<ellipse cx="18.4383" cy="17.9181" rx="4.49967" ry="3.39862" fill="#ACDC79"/>
<ellipse cx="4.49967" cy="3.39862" rx="4.49967" ry="3.39862" transform="matrix(-1 0 0 1 31.9373 14.5195)" fill="#ACDC79"/>
<ellipse cx="1.49989" cy="0.755249" rx="1.49989" ry="0.755249" transform="matrix(1 0 0 -1 26.8126 17.415)" fill="black" fill-opacity="0.08"/>
<ellipse cx="17.5632" cy="16.6595" rx="1.49989" ry="0.755249" fill="black" fill-opacity="0.08"/>
<circle cx="2.24983" cy="2.24983" r="2.24983" transform="matrix(-1 0 0 1 28.6875 11.7505)" fill="white"/>
<mask id="mask0_19986_8249" style="mask-type:alpha" maskUnits="userSpaceOnUse" x="24" y="11" width="5" height="6">
<circle cx="26.4377" cy="14.0321" r="2.24983" fill="white"/>
</mask>
<g mask="url(#mask0_19986_8249)">
<ellipse cx="26.0668" cy="14.0321" rx="1.50398" ry="1.49989" fill="black"/>
</g>
<circle cx="19.4382" cy="14.0321" r="2.24984" fill="white"/>
<mask id="mask1_19986_8249" style="mask-type:alpha" maskUnits="userSpaceOnUse" x="17" y="11" width="5" height="6">
<circle cx="19.4382" cy="14.0003" r="2.24984" fill="white"/>
</mask>
<g mask="url(#mask1_19986_8249)">
<ellipse cx="19.8172" cy="14.0004" rx="1.50399" ry="1.49989" fill="black"/>
</g>
<path d="M21.1055 16.1789C21.7338 16.4606 22.5889 16.531 22.938 16.531C23.287 16.531 24.1422 16.4606 24.7705 16.1789C25.3988 15.8972 25.8351 16.0951 25.9748 16.2292C26.1318 16.3466 26.3622 16.7523 26.0271 17.4364C25.6082 18.2915 24.2993 19.046 22.938 19.046C21.5767 19.046 20.2677 18.2915 19.8489 17.4364C19.5138 16.7523 19.7441 16.3466 19.9012 16.2292C20.0408 16.0951 20.4772 15.8972 21.1055 16.1789Z" fill="black"/>
<path d="M22.9377 17.6484C23.9246 17.6484 24.7835 17.9197 25.2268 18.3193C24.6212 18.7501 23.7898 19.0459 22.9377 19.0459C22.0854 19.0458 21.2543 18.7494 20.6487 18.3184C21.092 17.9188 21.9511 17.6485 22.9377 17.6484Z" fill="#F97066"/>
</svg>
