<svg width="32" height="32" viewBox="0 0 32 32" fill="none" xmlns="http://www.w3.org/2000/svg">
<path d="M26.262 15.0601C25.2781 13.1447 23.9849 12.1596 23.0295 11.2373C21.9828 10.227 21.3185 9.21319 21.1427 8.94494C20.9955 8.72007 20.6987 8.12649 20.2992 8.10595C19.8997 8.0854 19.4328 8.73034 19.1554 9.08763C18.878 9.44492 18.089 10.7921 17.9303 12.1253C17.7465 13.6618 18.2134 15.6754 19.0581 16.9128C20.001 18.294 22.4495 19.7596 24.5076 19.0199C26.5668 18.2803 26.762 16.0338 26.2632 15.0601H26.262Z" fill="#ACDC79"/>
<path d="M7.9537 13.8865C9.12144 12.2211 10.515 11.4176 11.5503 10.2954C12.3264 9.45292 13.0114 8.22565 13.1427 7.98479C13.274 7.74394 13.5639 7.14351 13.9315 7.10014C14.3607 7.04991 14.8915 7.77476 15.1688 8.13204C15.4462 8.48933 16.024 9.29205 16.3516 10.5945C16.6792 11.8969 16.8881 14.7472 15.6919 16.3396C14.499 17.9274 11.6498 19.0335 9.59059 18.2938C7.53134 17.5541 7.32588 14.7826 7.9537 13.8865Z" fill="#ACDC79"/>
<path d="M17.0582 5.32031C17.8002 5.32031 18.7168 6.92981 19.5432 8.48452C20.3446 9.99243 21.2509 11.7526 21.1676 13.6212C21.0569 16.1062 19.8309 18.4817 17.1244 18.4817C14.418 18.4817 13.2331 16.4601 12.9626 13.4911C12.8347 12.0928 13.5424 10.3155 14.6668 8.19002C15.7101 6.21866 16.4452 5.32031 17.0582 5.32031Z" fill="#ACDC79"/>
<path d="M38.9791 40.321C38.6515 41.2382 37.9323 42.0176 37.0347 42.5013C35.1537 43.2406 32.9939 43.012 32.193 42.8053C32.193 42.8053 31.4035 39.5597 30.6801 38.5592C29.9568 37.5587 30.2371 37.9177 29.9513 37.5544C29.3742 36.8183 28.6753 36.0375 27.933 35.267C26.4402 33.7198 24.7756 32.2004 23.0506 30.7235C22.8518 30.5515 22.6783 30.4092 22.433 30.1875C21.3045 29.2047 20.6624 27.8487 20.7111 26.3588C20.7561 24.8724 21.488 23.3738 22.6827 22.252C23.8775 21.1302 25.4193 20.4939 26.9056 20.5425C28.3956 20.5877 29.7084 21.3137 30.6183 22.5017C30.7305 22.6591 30.9211 22.8964 31.0878 23.1109C32.6427 25.0987 34.1573 27.1522 35.5791 29.3811C36.9392 31.7991 38.5518 33.4272 39.2056 38.1874C39.2325 38.7811 39.2067 39.5048 38.9791 40.321Z" fill="#ACDC79"/>
<path d="M-5.60796 40.321C-5.28031 41.2382 -4.56114 42.0176 -3.66351 42.5013C-1.78251 43.2406 0.3773 43.012 1.17822 42.8053C1.17822 42.8053 1.9677 39.5597 2.69105 38.5592C3.41441 37.5587 3.13409 37.9177 3.41992 37.5544C3.99703 36.8183 4.69593 36.0375 5.43821 35.267C6.93095 33.7198 8.59554 32.2004 10.3206 30.7235C10.5194 30.5515 10.6928 30.4092 10.9382 30.1875C12.0667 29.2047 12.7088 27.8487 12.6601 26.3588C12.6151 24.8724 11.8832 23.3738 10.6884 22.252C9.49368 21.1302 7.95193 20.4939 6.46556 20.5425C4.97558 20.5877 3.66276 21.3137 2.7529 22.5017C2.64069 22.6591 2.4501 22.8964 2.28335 23.1109C0.728507 25.0987 -0.786129 27.1522 -2.20796 29.3811C-3.56798 31.7991 -5.18063 33.4272 -5.83444 38.1874C-5.86131 38.7811 -5.83549 39.5048 -5.60796 40.321Z" fill="#ACDC79"/>
<path d="M16.6667 50.6112C25.8134 50.6112 33.3333 46.6633 33.3333 37.8386C33.3333 29.0139 28.677 9.55859 16.6667 9.55859C4.65637 9.55859 0 29.0139 0 37.8386C0 46.6633 7.51996 50.6112 16.6667 50.6112Z" fill="#ACDC79"/>
<circle cx="3.15789" cy="3.15789" r="3.15789" transform="matrix(-1 0 0 1 24.4035 15.2461)" fill="white"/>
<mask id="mask0_19958_7211" style="mask-type:alpha" maskUnits="userSpaceOnUse" x="18" y="15" width="7" height="7">
<circle cx="21.2456" cy="18.404" r="3.15789" fill="white"/>
</mask>
<g mask="url(#mask0_19958_7211)">
<ellipse cx="20.725" cy="18.4021" rx="2.11101" ry="2.10526" fill="black"/>
</g>
<circle cx="11.421" cy="18.404" r="3.15789" fill="white"/>
<mask id="mask1_19958_7211" style="mask-type:alpha" maskUnits="userSpaceOnUse" x="8" y="15" width="7" height="7">
<circle cx="11.421" cy="18.404" r="3.15789" fill="white"/>
</mask>
<g mask="url(#mask1_19958_7211)">
<ellipse cx="11.9531" cy="18.4021" rx="2.11101" ry="2.10526" fill="black"/>
</g>
<ellipse cx="9.14034" cy="23.8417" rx="2.10526" ry="1.05263" fill="black" fill-opacity="0.08"/>
<ellipse cx="2.10526" cy="1.05263" rx="2.10526" ry="1.05263" transform="matrix(-1 0 0 1 25.6316 22.7891)" fill="black" fill-opacity="0.08"/>
<path d="M17.5612 23.3769C17.6031 23.2895 17.7078 23.2527 17.7952 23.2947C17.8825 23.3366 17.9193 23.4413 17.8774 23.5287L17.7193 23.4528C17.8728 23.5265 17.8773 23.5287 17.8774 23.5289L17.8771 23.5295C17.8769 23.5299 17.8766 23.5303 17.8764 23.5307C17.876 23.5316 17.8754 23.5326 17.8748 23.5338C17.8737 23.5362 17.8722 23.5393 17.8702 23.5429C17.8663 23.5502 17.8609 23.56 17.8539 23.5719C17.8399 23.5957 17.8193 23.6282 17.7914 23.6663C17.7357 23.7423 17.65 23.8416 17.5277 23.9402C17.2806 24.1395 16.8912 24.33 16.3158 24.33C15.7403 24.33 15.3509 24.1395 15.1038 23.9402C14.9815 23.8416 14.8959 23.7423 14.8401 23.6663C14.8122 23.6282 14.7916 23.5957 14.7776 23.5719C14.7706 23.56 14.7652 23.5502 14.7613 23.5429C14.7594 23.5393 14.7579 23.5362 14.7567 23.5338C14.7561 23.5326 14.7556 23.5316 14.7552 23.5307C14.755 23.5303 14.7546 23.5299 14.7545 23.5295L14.7541 23.5289C14.7542 23.5287 14.7588 23.5265 14.9123 23.4528L14.7541 23.5287C14.7122 23.4413 14.749 23.3366 14.8364 23.2947C14.9237 23.2527 15.0283 23.2896 15.0702 23.3769L15.0713 23.3784C15.0728 23.3814 15.0757 23.3868 15.08 23.394C15.0886 23.4086 15.1027 23.4309 15.123 23.4586C15.1637 23.5142 15.229 23.5904 15.3241 23.6671C15.5121 23.8187 15.8245 23.9791 16.3158 23.9791C16.807 23.9791 17.1194 23.8187 17.3074 23.6671C17.4026 23.5904 17.4678 23.5142 17.5086 23.4586C17.5288 23.4309 17.543 23.4086 17.5516 23.394C17.5558 23.3868 17.5587 23.3814 17.5603 23.3784L17.5612 23.3769Z" fill="black"/>
<path d="M19.5351 12.9621L23.0438 13.1375C23.5277 13.1617 23.9003 13.5737 23.8762 14.0575C23.8519 14.5413 23.44 14.914 22.9561 14.8898L19.4474 14.7144C18.9635 14.6902 18.5909 14.2782 18.6151 13.7944C18.6393 13.3105 19.0512 12.9379 19.5351 12.9621Z" fill="black" fill-opacity="0.08"/>
<path d="M13.1316 12.9621L9.62281 13.1375C9.13898 13.1617 8.76631 13.5737 8.7905 14.0575C8.81472 14.5413 9.22669 14.914 9.71053 14.8898L13.2193 14.7144C13.7031 14.6902 14.0758 14.2782 14.0516 13.7944C14.0274 13.3105 13.6154 12.9379 13.1316 12.9621Z" fill="black" fill-opacity="0.08"/>
</svg>
