<svg width="639" height="580" viewBox="0 0 639 580" fill="none" xmlns="http://www.w3.org/2000/svg">
<g clip-path="url(#clip0_20197_14606)">
<path d="M243 609C243 631.644 261.356 650 284 650H375C392.121 650 406 636.121 406 619V552H243V609Z" fill="#D5D7DA"/>
<ellipse cx="225.009" cy="328.897" rx="30.2535" ry="23.162" transform="rotate(41.432 225.009 328.897)" fill="#D5D7DA"/>
<ellipse cx="30.2535" cy="23.162" rx="30.2535" ry="23.162" transform="matrix(-0.749742 0.66173 0.66173 0.749742 434.877 291.512)" fill="#D5D7DA"/>
<rect x="389.895" y="504.762" width="60" height="163.421" rx="30" transform="rotate(-18.3486 389.895 504.762)" fill="#D5D7DA"/>
<rect x="361" y="416.887" width="60" height="163.421" rx="30" transform="rotate(-18.3486 361 416.887)" fill="#D5D7DA"/>
<rect x="232.258" y="403" width="60" height="163.421" rx="30" transform="rotate(18.6493 232.258 403)" fill="#D5D7DA"/>
<rect x="200.259" y="498" width="60" height="163.421" rx="30" transform="rotate(18.6493 200.259 498)" fill="#D5D7DA"/>
<path d="M243.001 560H406.001V535H243.001V560Z" fill="#D5D7DA"/>
<rect x="231.973" y="478.465" width="60" height="124.259" rx="30" transform="rotate(-107.43 231.973 478.465)" fill="#D5D7DA"/>
<mask id="mask0_20197_14606" style="mask-type:alpha" maskUnits="userSpaceOnUse" x="157" y="399" width="335" height="261">
<rect x="391" y="497.887" width="60" height="163.421" rx="30" transform="rotate(-18.3486 391 497.887)" fill="#3EBBF6"/>
<rect x="194.613" y="492.996" width="60" height="163.421" rx="30" transform="rotate(15.4785 194.613 492.996)" fill="#3EBBF6"/>
<rect x="362.104" y="410.012" width="60" height="163.421" rx="30" transform="rotate(-18.3486 362.104 410.012)" fill="#3EBBF6"/>
<rect x="222.782" y="392.184" width="60" height="163.421" rx="30" transform="rotate(15.4785 222.782 392.184)" fill="#3EBBF6"/>
</mask>
<g mask="url(#mask0_20197_14606)">
</g>
<rect width="60" height="124.259" rx="30" transform="matrix(0.202714 -0.979238 -0.979238 -0.202714 422.68 470.941)" fill="#D5D7DA"/>
<path d="M242.001 436C242.001 420.536 254.537 408 270.001 408H379.001C393.913 408 406.001 420.088 406.001 435V544C406.001 545.105 405.105 546 404.001 546H244.001C242.896 546 242.001 545.105 242.001 544V436Z" fill="#D5D7DA"/>
<path d="M301 368C301 354.193 312.192 343 326 343C339.807 343 351 354.193 351 368V397.298C351 410.388 340.388 421 327.298 421H324.701C311.611 421 301 410.388 301 397.298V368Z" fill="#D5D7DA"/>
<path d="M223.684 275.369C223.684 234.849 256.533 202 297.054 202H354.282C394.803 202 427.652 234.849 427.652 275.37V330.312C427.652 358.318 404.948 381.022 376.942 381.022H274.394C246.388 381.022 223.684 358.318 223.684 330.312V275.369Z" fill="#D5D7DA"/>
</g>
<defs>
<clipPath id="clip0_20197_14606">
<rect width="639" height="580" fill="white"/>
</clipPath>
</defs>
</svg>
