<svg width="1024" height="1024" viewBox="0 0 1024 1024" fill="none" xmlns="http://www.w3.org/2000/svg">
<g clip-path="url(#clip0_19986_8446)">
<rect width="1024" height="1024" fill="#ACDC79"/>
<circle cx="130" cy="130" r="130" transform="matrix(-1 0 0 1 844.216 301.548)" fill="white"/>
<mask id="mask0_19986_8446" style="mask-type:alpha" maskUnits="userSpaceOnUse" x="584" y="301" width="261" height="261">
<circle cx="714.216" cy="431.548" r="130" fill="white"/>
</mask>
<g mask="url(#mask0_19986_8446)">
<ellipse cx="692.786" cy="431.548" rx="86.9032" ry="86.6667" fill="black"/>
</g>
<circle cx="309.771" cy="431.548" r="130" fill="white"/>
<mask id="mask1_19986_8446" style="mask-type:alpha" maskUnits="userSpaceOnUse" x="179" y="301" width="261" height="261">
<circle cx="309.771" cy="431.548" r="130" fill="white"/>
</mask>
<g mask="url(#mask1_19986_8446)">
<ellipse cx="331.674" cy="431.548" rx="86.9032" ry="86.6667" fill="black"/>
</g>
<ellipse cx="215.882" cy="655.437" rx="86.6667" ry="43.3333" fill="black" fill-opacity="0.08"/>
<ellipse cx="86.6667" cy="43.3333" rx="86.6667" ry="43.3333" transform="matrix(-1 0 0 1 894.771 612.104)" fill="black" fill-opacity="0.08"/>
<path d="M563.372 615.757C565.098 612.161 569.411 610.646 573.007 612.372C576.603 614.098 578.118 618.41 576.392 622.006L569.882 618.881C576.2 621.914 576.389 622.006 576.392 622.013L576.378 622.041C576.371 622.055 576.359 622.073 576.35 622.091C576.333 622.126 576.311 622.169 576.286 622.217C576.237 622.315 576.175 622.441 576.096 622.591C575.936 622.892 575.714 623.294 575.426 623.783C574.849 624.764 574 626.103 572.852 627.669C570.556 630.799 567.032 634.886 561.997 638.947C551.824 647.151 535.793 654.993 512.105 654.993C488.416 654.993 472.385 647.151 462.212 638.947C457.177 634.886 453.653 630.799 451.357 627.669C450.209 626.103 449.36 624.764 448.783 623.783C448.495 623.294 448.273 622.892 448.113 622.591C448.034 622.441 447.972 622.315 447.923 622.217C447.898 622.169 447.876 622.126 447.859 622.091C447.851 622.073 447.838 622.055 447.831 622.041L447.817 622.013C447.82 622.006 448.008 621.914 454.327 618.881L447.817 622.006C446.091 618.41 447.606 614.098 451.202 612.372C454.797 610.646 459.103 612.163 460.83 615.757L460.872 615.82C460.937 615.942 461.055 616.163 461.232 616.462C461.584 617.061 462.167 617.982 463.002 619.121C464.678 621.407 467.364 624.545 471.282 627.705C479.02 633.945 491.882 640.548 512.105 640.548C532.327 640.548 545.189 633.945 552.927 627.705C556.845 624.545 559.531 621.407 561.207 619.121C562.042 617.982 562.625 617.061 562.977 616.462C563.154 616.163 563.272 615.942 563.337 615.82L563.372 615.757Z" fill="black"/>
<path d="M643.799 207.701L788.243 214.923C808.161 215.92 823.502 232.88 822.507 252.798C821.51 272.715 804.55 288.057 784.632 287.061L640.188 279.839C620.27 278.842 604.929 261.882 605.925 241.964C606.922 222.047 623.881 206.705 643.799 207.701Z" fill="black" fill-opacity="0.08"/>
<path d="M380.188 207.701L235.743 214.923C215.826 215.92 200.484 232.88 201.48 252.798C202.477 272.715 219.436 288.057 239.354 287.061L383.799 279.839C403.717 278.842 419.058 261.882 418.062 241.964C417.065 222.047 400.106 206.705 380.188 207.701Z" fill="black" fill-opacity="0.08"/>
<g filter="url(#filter0_d_19986_8446)">
<mask id="path-12-inside-1_19986_8446" fill="white">
<path d="M1038 640V1038H594V1026C664.692 1026 722 968.692 722 898V832C722 796.654 750.654 768 786 768H898C968.692 768 1026 710.692 1026 640H1038Z"/>
</mask>
<path d="M1038 640V1038H594V1026C664.692 1026 722 968.692 722 898V832C722 796.654 750.654 768 786 768H898C968.692 768 1026 710.692 1026 640H1038Z" fill="white"/>
<path d="M1038 640H1052V626H1038V640ZM1038 1038V1052H1052V1038H1038ZM594 1038H580V1052H594V1038ZM594 1026V1012H580V1026H594ZM722 832H708V832H722ZM786 768V754V754V768ZM898 768V782V782V768ZM1026 640V626H1012V640L1026 640ZM1038 640H1024V1038H1038H1052V640H1038ZM1038 1038V1024H594V1038V1052H1038V1038ZM594 1038H608V1026H594H580V1038H594ZM594 1026V1040C672.424 1040 736 976.424 736 898H722H708C708 960.96 656.96 1012 594 1012V1026ZM722 898H736V832H722H708V898H722ZM722 832H736C736 804.386 758.386 782 786 782V768V754C742.922 754 708 788.922 708 832H722ZM786 768V782H898V768V754H786V768ZM898 768V782C976.424 782 1040 718.424 1040 640L1026 640L1012 640C1012 702.96 960.96 754 898 754V768ZM1026 640V654H1038V640V626H1026V640Z" fill="#D5D7DA" mask="url(#path-12-inside-1_19986_8446)"/>
</g>
<g clip-path="url(#clip1_19986_8446)">
<path d="M855.489 813.676L797.569 837.464C795.069 838.492 793.438 840.928 793.438 843.632V880.344H855.489V813.676Z" fill="#D0D6DE"/>
<path d="M793.438 880.343V896.587C793.438 921.607 826.145 945.919 855.489 960.343V880.343H793.438Z" fill="#8595AA"/>
<path d="M855.312 960.343C884.656 945.919 917.365 921.607 917.365 896.587V880.343H855.312V960.343Z" fill="#2E3D51"/>
<path d="M855.312 813.676V880.344H917.365V843.632C917.365 840.928 915.733 838.492 913.233 837.464L855.312 813.676Z" fill="#8595AA"/>
</g>
</g>
<defs>
<filter id="filter0_d_19986_8446" x="498" y="544" width="604" height="558" filterUnits="userSpaceOnUse" color-interpolation-filters="sRGB">
<feFlood flood-opacity="0" result="BackgroundImageFix"/>
<feColorMatrix in="SourceAlpha" type="matrix" values="0 0 0 0 0 0 0 0 0 0 0 0 0 0 0 0 0 0 127 0" result="hardAlpha"/>
<feOffset dx="-16" dy="-16"/>
<feGaussianBlur stdDeviation="40"/>
<feColorMatrix type="matrix" values="0 0 0 0 0.0392157 0 0 0 0 0.0496732 0 0 0 0 0.0705882 0 0 0 0.14 0"/>
<feBlend mode="normal" in2="BackgroundImageFix" result="effect1_dropShadow_19986_8446"/>
<feBlend mode="normal" in="SourceGraphic" in2="effect1_dropShadow_19986_8446" result="shape"/>
</filter>
<clipPath id="clip0_19986_8446">
<rect width="1024" height="1024" fill="white"/>
</clipPath>
<clipPath id="clip1_19986_8446">
<rect width="160" height="160" fill="white" transform="translate(776 807)"/>
</clipPath>
</defs>
</svg>
