<svg width="112" height="44" viewBox="0 0 112 44" fill="none" xmlns="http://www.w3.org/2000/svg">
<path d="M101.377 6.70361L101.251 12.0302L97.5076 12.181L97.0553 23.8393L91.7538 24.1157L91.2764 12.4574L87.5327 12.6584L87.6835 6.72874L101.377 6.70361Z" fill="#535862"/>
<path d="M87.3191 6.72852C86.9422 9.67659 86.6197 12.6121 86.3517 15.535C86.0837 18.4496 85.8283 21.3851 85.5854 24.3416L80.4347 24.7185L80.6608 22.7838C80.4933 22.9764 80.2965 23.1439 80.0703 23.2863C79.8526 23.4287 79.6181 23.5459 79.3668 23.6381C79.1156 23.7218 78.8559 23.7846 78.5879 23.8265C78.3199 23.86 78.0645 23.8726 77.8216 23.8642C77.2521 23.8558 76.7161 23.7469 76.2135 23.5376C75.711 23.3198 75.2504 23.035 74.8316 22.6833C74.4129 22.3232 74.036 21.9086 73.701 21.4396C73.366 20.9622 73.0812 20.4639 72.8467 19.9446C72.6206 19.417 72.4447 18.8809 72.3191 18.3366C72.2018 17.7922 72.1432 17.2645 72.1432 16.7536C72.1432 15.9999 72.1558 15.221 72.1809 14.417C72.2144 13.6046 72.2688 12.7922 72.3442 11.9798C72.4196 11.1674 72.5159 10.3634 72.6331 9.56771C72.7588 8.77207 72.9137 8.00992 73.098 7.28128C74.1197 7.33153 75.1457 7.37759 76.1759 7.41947C77.206 7.46135 78.232 7.47391 79.2537 7.45716C79.0611 8.1858 78.8685 8.91863 78.6759 9.65565C78.4916 10.3843 78.3241 11.1213 78.1733 11.8667C78.0226 12.6037 77.9011 13.3449 77.809 14.0903C77.7169 14.8357 77.6708 15.5895 77.6708 16.3516C77.6708 16.5275 77.6792 16.7788 77.696 17.1054C77.7127 17.432 77.7546 17.7545 77.8216 18.0727C77.897 18.391 78.0058 18.6716 78.1482 18.9144C78.299 19.149 78.5083 19.2662 78.7764 19.2662C79.0946 19.2662 79.3794 19.1322 79.6306 18.8642C79.8819 18.5878 80.1038 18.2193 80.2965 17.7587C80.4891 17.298 80.6524 16.7662 80.7864 16.1632C80.9288 15.5602 81.046 14.932 81.1382 14.2788C81.2387 13.6171 81.3182 12.9513 81.3769 12.2813C81.4355 11.6113 81.4774 10.9831 81.5025 10.3969C81.536 9.80222 81.5569 9.27039 81.5653 8.80138C81.5821 8.33237 81.5904 7.96805 81.5904 7.70842C81.5904 7.54091 81.5862 7.37759 81.5779 7.21847C81.5695 7.05934 81.5569 6.89602 81.5402 6.72852C82.0846 6.74527 82.6248 6.75783 83.1608 6.7662C83.6968 6.77458 84.237 6.77877 84.7814 6.77877C85.2001 6.77877 85.6189 6.77877 86.0377 6.77877C86.4648 6.77039 86.8919 6.75364 87.3191 6.72852Z" fill="#535862"/>
<path d="M71.4648 14.7941C71.4648 15.5563 71.3768 16.2933 71.201 17.0052C71.0251 17.7087 70.7696 18.3703 70.4346 18.9901C70.108 19.6099 69.706 20.1794 69.2286 20.6986C68.7596 21.2095 68.2278 21.6492 67.6331 22.0177C67.0469 22.3862 66.4062 22.6752 65.711 22.8846C65.0159 23.0856 64.2789 23.1861 63.5 23.1861C62.7462 23.1861 62.0259 23.0898 61.3392 22.8971C60.6608 22.7045 60.0242 22.4365 59.4296 22.0931C58.835 21.7413 58.2948 21.3226 57.809 20.8368C57.3316 20.3427 56.9212 19.7983 56.5778 19.2037C56.2428 18.6006 55.979 17.9557 55.7864 17.269C55.6021 16.5822 55.51 15.8661 55.51 15.1207C55.51 14.3921 55.5979 13.6802 55.7738 12.9851C55.9497 12.2815 56.201 11.6199 56.5276 11.0001C56.8626 10.3804 57.2646 9.81086 57.7336 9.29159C58.2026 8.77233 58.7261 8.32426 59.304 7.94737C59.8902 7.57049 60.5226 7.27736 61.201 7.06798C61.8794 6.8586 62.5954 6.75391 63.3492 6.75391C64.5636 6.75391 65.6691 6.94235 66.6658 7.31923C67.6708 7.69612 68.5251 8.23632 69.2286 8.93984C69.9405 9.63498 70.4891 10.4809 70.8743 11.4775C71.268 12.4658 71.4648 13.5713 71.4648 14.7941ZM65.8869 15.1207C65.8869 14.7606 65.8325 14.413 65.7236 14.078C65.6231 13.7346 65.4723 13.4331 65.2713 13.1735C65.0703 12.9055 64.8191 12.6919 64.5175 12.5328C64.2244 12.3653 63.8852 12.2815 63.5 12.2815C63.1063 12.2815 62.7546 12.3527 62.4447 12.4951C62.1348 12.6375 61.8668 12.8343 61.6407 13.0856C61.4229 13.3284 61.2554 13.6174 61.1381 13.9524C61.0209 14.279 60.9623 14.6266 60.9623 14.9951C60.9623 15.3469 61.0125 15.6986 61.113 16.0504C61.2135 16.4021 61.3643 16.7204 61.5653 17.0052C61.7663 17.2899 62.0134 17.5202 62.3065 17.6961C62.608 17.872 62.9556 17.9599 63.3492 17.9599C63.7428 17.9599 64.0946 17.8846 64.4045 17.7338C64.7227 17.5747 64.9907 17.3653 65.2085 17.1057C65.4263 16.8377 65.5938 16.532 65.711 16.1886C65.8283 15.8452 65.8869 15.4893 65.8869 15.1207Z" fill="#535862"/>
<path d="M55.0578 12.3065C55.0578 12.9598 54.9991 13.5544 54.8819 14.0905C54.773 14.6181 54.5971 15.1039 54.3542 15.5477C54.1114 15.9916 53.7973 16.402 53.412 16.7789C53.0268 17.1558 52.5619 17.5159 52.0176 17.8593L55.0075 23.1859L49.3542 24.2915L47.4196 18.9397L45.8618 18.99L45.6357 24.2161H40.2336C40.2755 22.3065 40.3132 20.4054 40.3467 18.5126C40.3886 16.6198 40.4346 14.7186 40.4849 12.809C40.5016 11.8459 40.5184 10.8911 40.5352 9.94472C40.5519 8.99832 40.5854 8.04355 40.6357 7.0804C41.2219 6.86265 41.7998 6.68258 42.3693 6.5402C42.9388 6.39782 43.5083 6.28894 44.0779 6.21357C44.6558 6.12982 45.2378 6.07538 45.8241 6.05025C46.4187 6.01675 47.0259 6 47.6457 6C48.6005 6 49.5217 6.134 50.4095 6.40201C51.3057 6.66164 52.0971 7.05528 52.7839 7.58291C53.4707 8.11055 54.0192 8.76801 54.4296 9.55528C54.8484 10.3425 55.0578 11.2596 55.0578 12.3065ZM49.4296 12.7085C49.4296 12.3568 49.3794 12.0343 49.2789 11.7412C49.1867 11.4481 49.0444 11.1968 48.8517 10.9874C48.6675 10.7697 48.433 10.6022 48.1482 10.4849C47.8718 10.3593 47.5452 10.2965 47.1683 10.2965C47.0008 10.2965 46.8375 10.309 46.6784 10.3342C46.5192 10.3509 46.3643 10.3802 46.2135 10.4221L46.0125 15.0955H46.314C46.6742 15.0955 47.0385 15.0494 47.407 14.9573C47.7839 14.8652 48.1189 14.7228 48.412 14.5302C48.7135 14.3375 48.9564 14.0905 49.1407 13.7889C49.3333 13.4874 49.4296 13.1273 49.4296 12.7085Z" fill="#535862"/>
<path d="M39.6181 12.8341C39.6181 13.6465 39.4967 14.3668 39.2538 14.9949C39.0109 15.623 38.6759 16.1758 38.2488 16.6532C37.83 17.1222 37.3359 17.52 36.7664 17.8467C36.1969 18.1649 35.5855 18.4287 34.9322 18.6381C34.2873 18.8391 33.6173 18.9899 32.9222 19.0904C32.227 19.1825 31.5444 19.2328 30.8744 19.2411V24.5929H25.0201C25.0201 23.6381 25.0201 22.7085 25.0201 21.8039C25.0285 20.8994 25.0327 20.0033 25.0327 19.1155C25.0411 18.2194 25.0453 17.319 25.0453 16.4145C25.0536 15.51 25.062 14.5761 25.0704 13.613C25.0871 12.5912 25.0913 11.5694 25.083 10.5477C25.0746 9.52589 25.0955 8.49574 25.1458 7.45722C26.2178 7.13896 27.2898 6.90026 28.3618 6.74113C29.4339 6.58201 30.5394 6.50244 31.6784 6.50244C32.3233 6.50244 32.9682 6.55688 33.6131 6.66576C34.258 6.76626 34.8736 6.92958 35.4598 7.15571C36.0545 7.38184 36.6031 7.6666 37.1056 8.00998C37.6165 8.34499 38.0562 8.747 38.4247 9.21601C38.7932 9.68502 39.0821 10.221 39.2915 10.824C39.5093 11.4271 39.6181 12.0971 39.6181 12.8341ZM34.0402 13.2612C34.0402 12.7168 33.8727 12.2939 33.5377 11.9924C33.2111 11.6825 32.784 11.5276 32.2563 11.5276C32.0804 11.5276 31.8962 11.5443 31.7036 11.5778C31.5193 11.6029 31.3434 11.6364 31.1759 11.6783L31.0252 15.3467C31.1424 15.3634 31.2555 15.3718 31.3644 15.3718C31.4732 15.3718 31.5863 15.3718 31.7036 15.3718C32.0051 15.3718 32.294 15.3215 32.5704 15.221C32.8551 15.1205 33.1064 14.9782 33.3242 14.7939C33.5419 14.6013 33.7136 14.3793 33.8392 14.1281C33.9732 13.8684 34.0402 13.5795 34.0402 13.2612Z" fill="#535862"/>
<path d="M24.1658 17.9852C24.1658 19.1326 23.9648 20.125 23.5628 20.9626C23.1692 21.7917 22.6248 22.4785 21.9296 23.0229C21.2429 23.5589 20.4347 23.9567 19.505 24.2163C18.5838 24.4676 17.5913 24.5932 16.5276 24.5932C16.1173 24.5932 15.665 24.5388 15.1709 24.4299C14.6851 24.321 14.191 24.187 13.6884 24.0279C13.1859 23.8604 12.7002 23.6845 12.2312 23.5002C11.7705 23.3076 11.3601 23.1276 11 22.96L11.5528 18.0354C12.2647 18.4626 13.0519 18.7892 13.9146 19.0153C14.7856 19.2331 15.6399 19.342 16.4774 19.342C16.6365 19.342 16.8291 19.3378 17.0553 19.3294C17.2814 19.3126 17.495 19.275 17.696 19.2163C17.9054 19.1493 18.0812 19.053 18.2236 18.9274C18.366 18.8018 18.4372 18.6217 18.4372 18.3872C18.4372 18.2281 18.3869 18.0941 18.2864 17.9852C18.1859 17.8679 18.0561 17.7758 17.897 17.7088C17.7379 17.6334 17.5578 17.579 17.3568 17.5455C17.1558 17.5036 16.959 17.4743 16.7663 17.4575C16.5737 17.4408 16.3936 17.4324 16.2261 17.4324C16.0586 17.4324 15.9246 17.4324 15.8241 17.4324C15.1039 17.4324 14.4464 17.3193 13.8518 17.0932C13.2655 16.8671 12.7588 16.5488 12.3317 16.1384C11.9129 15.7197 11.5863 15.2172 11.3518 14.6309C11.1173 14.0363 11 13.3788 11 12.6585C11 11.6703 11.1968 10.7867 11.5905 10.0078C11.9925 9.22052 12.5243 8.55469 13.1859 8.0103C13.8559 7.45754 14.6223 7.03459 15.4849 6.74146C16.3476 6.44832 17.2395 6.30176 18.1608 6.30176C18.5712 6.30176 18.9941 6.31851 19.4296 6.35201C19.8652 6.37713 20.2965 6.42739 20.7236 6.50276C21.1591 6.57814 21.5821 6.67445 21.9925 6.79171C22.4028 6.90896 22.7923 7.05553 23.1608 7.23141L22.6834 12.3319C22.1139 12.1393 21.5151 11.9801 20.8869 11.8545C20.2672 11.7205 19.66 11.6535 19.0653 11.6535C18.9564 11.6535 18.8141 11.6577 18.6382 11.6661C18.4707 11.6661 18.2906 11.6786 18.098 11.7038C17.9137 11.7205 17.7253 11.7498 17.5327 11.7917C17.34 11.8336 17.1683 11.8922 17.0176 11.9676C16.8668 12.0346 16.7454 12.1267 16.6533 12.244C16.5611 12.3612 16.5193 12.4994 16.5276 12.6585C16.536 12.8428 16.603 12.9852 16.7286 13.0857C16.8626 13.1862 17.0302 13.2616 17.2312 13.3118C17.4405 13.3537 17.6667 13.3746 17.9095 13.3746C18.1608 13.3746 18.4079 13.3704 18.6508 13.3621C18.8936 13.3453 19.1198 13.3327 19.3291 13.3244C19.5385 13.3076 19.7102 13.3034 19.8442 13.3118C20.5142 13.3537 21.1173 13.4961 21.6533 13.7389C22.1893 13.9818 22.6415 14.3043 23.01 14.7063C23.3869 15.1083 23.6717 15.5899 23.8643 16.151C24.0653 16.7038 24.1658 17.3152 24.1658 17.9852Z" fill="#535862"/>
<path d="M93.76 34.6861C93.76 35.2598 93.6595 35.7623 93.4585 36.1936C93.2617 36.6208 92.9895 36.9767 92.6419 37.2615C92.2986 37.5462 91.8945 37.7598 91.4296 37.9022C90.969 38.0445 90.4728 38.1157 89.9409 38.1157C89.7357 38.1157 89.5096 38.0885 89.2626 38.0341C89.0197 37.9796 88.7726 37.9126 88.5213 37.8331C88.2701 37.7493 88.0272 37.6614 87.7927 37.5693C87.5624 37.4729 87.3572 37.3829 87.1771 37.2992L87.4535 34.7112C87.8094 34.9248 88.2031 35.0881 88.6344 35.2012C89.0699 35.31 89.4971 35.3645 89.9158 35.3645C89.9954 35.3645 90.0917 35.3624 90.2048 35.3582C90.3178 35.3498 90.4246 35.331 90.5251 35.3017C90.6298 35.2682 90.7177 35.22 90.7889 35.1572C90.8601 35.0944 90.8957 35.0043 90.8957 34.8871C90.8957 34.8075 90.8706 34.7405 90.8203 34.6861C90.7701 34.6275 90.7052 34.5814 90.6256 34.5479C90.546 34.5102 90.456 34.483 90.3555 34.4662C90.255 34.4453 90.1566 34.4306 90.0603 34.4223C89.964 34.4139 89.8739 34.4097 89.7902 34.4097C89.7064 34.4097 89.6394 34.4097 89.5892 34.4097C89.229 34.4097 88.9003 34.3469 88.603 34.2213C88.3099 34.0956 88.0565 33.9218 87.8429 33.6999C87.6336 33.4738 87.4702 33.2079 87.353 32.9022C87.2357 32.5923 87.1771 32.2573 87.1771 31.8971C87.1771 31.403 87.2755 30.9612 87.4723 30.5718C87.6733 30.1781 87.9393 29.8452 88.2701 29.573C88.6051 29.2966 88.9883 29.0852 89.4196 28.9386C89.8509 28.792 90.2969 28.7188 90.7575 28.7188C90.9627 28.7188 91.1742 28.7271 91.3919 28.7439C91.6097 28.7564 91.8254 28.7816 92.0389 28.8193C92.2567 28.8569 92.4682 28.9051 92.6734 28.9637C92.8785 29.0224 93.0733 29.0956 93.2575 29.1836L93.0188 31.7338C92.7341 31.6375 92.4347 31.5579 92.1206 31.4951C91.8107 31.4281 91.5071 31.3946 91.2098 31.3946C91.1553 31.3946 91.0842 31.3967 90.9962 31.4009C90.9125 31.4009 90.8224 31.4072 90.7261 31.4198C90.634 31.4281 90.5398 31.4428 90.4435 31.4637C90.3471 31.4847 90.2613 31.514 90.1859 31.5517C90.1105 31.5852 90.0498 31.6312 90.0038 31.6899C89.9577 31.7485 89.9368 31.8176 89.9409 31.8971C89.9451 31.9893 89.9786 32.0646 90.0414 32.1233C90.1084 32.1777 90.1922 32.2217 90.2927 32.2552C90.3974 32.2845 90.5105 32.3054 90.6319 32.318C90.7575 32.3306 90.8811 32.3389 91.0025 32.3431C91.1239 32.3431 91.237 32.3431 91.3417 32.3431C91.4464 32.3389 91.5322 32.341 91.5992 32.3494C91.9342 32.3703 92.2357 32.4415 92.5038 32.563C92.7718 32.6844 92.9979 32.8456 93.1821 33.0466C93.3706 33.2476 93.513 33.4884 93.6093 33.769C93.7098 34.0454 93.76 34.3511 93.76 34.6861Z" fill="#535862"/>
<path d="M86.9824 29.0454L86.9196 31.7087L85.0477 31.7841L84.5704 37.7389L81.9196 37.8771L81.9322 31.9223L80.0603 32.0228L80.1357 29.058L86.9824 29.0454Z" fill="#535862"/>
<path d="M79.9032 29.1836L79.2123 37.7389L76.5615 37.8771V29.3595L79.9032 29.1836Z" fill="#535862"/>
<path d="M76.1722 35.7917C76.1722 36.1393 76.1073 36.4387 75.9774 36.69C75.8518 36.9412 75.6822 37.1548 75.4686 37.3307C75.2551 37.5066 75.008 37.651 74.7274 37.7641C74.4511 37.873 74.1621 37.9588 73.8606 38.0216C73.5591 38.0845 73.2555 38.1263 72.9498 38.1473C72.6483 38.1682 72.3656 38.1787 72.1018 38.1787C71.8422 38.1787 71.5721 38.1682 71.2915 38.1473C71.0151 38.1305 70.7387 38.0991 70.4624 38.053C70.186 38.007 69.9138 37.9463 69.6458 37.8709C69.3778 37.7913 69.1244 37.6929 68.8857 37.5757L68.8732 29.4852C69.1077 29.3889 69.3568 29.303 69.6207 29.2277C69.8845 29.1481 70.1525 29.0832 70.4247 29.0329C70.7011 28.9785 70.9753 28.9387 71.2475 28.9136C71.5197 28.8843 71.7836 28.8696 72.039 28.8696C72.3363 28.8696 72.6357 28.8885 72.9372 28.9262C73.2429 28.9639 73.5361 29.0267 73.8166 29.1146C74.0972 29.2025 74.3589 29.3177 74.6018 29.4601C74.8447 29.5983 75.0562 29.77 75.2362 29.9752C75.4205 30.1803 75.5629 30.419 75.6634 30.6912C75.7681 30.9634 75.8204 31.2775 75.8204 31.6334C75.8204 31.868 75.7869 32.0878 75.7199 32.293C75.6529 32.4982 75.5566 32.6824 75.431 32.8458C75.3053 33.0091 75.1525 33.1494 74.9724 33.2666C74.7923 33.3797 74.5892 33.4634 74.3631 33.5179C74.6353 33.5891 74.8824 33.6937 75.1043 33.8319C75.3305 33.9701 75.521 34.1376 75.6759 34.3345C75.8351 34.5313 75.9565 34.7532 76.0403 35.0003C76.1282 35.2474 76.1722 35.5112 76.1722 35.7917ZM72.9812 32.2113C72.9812 32.0899 72.9561 31.9873 72.9058 31.9035C72.8556 31.8156 72.7928 31.7444 72.7174 31.69C72.6462 31.6355 72.5666 31.5958 72.4787 31.5706C72.3949 31.5455 72.3196 31.5329 72.2526 31.5329C72.1688 31.5329 72.0872 31.5455 72.0076 31.5706C71.928 31.5958 71.8506 31.6251 71.7752 31.6586L71.7375 33.053C71.8338 33.053 71.9531 33.0447 72.0955 33.0279C72.2379 33.0112 72.374 32.9756 72.5038 32.9211C72.6378 32.8625 72.7509 32.7788 72.843 32.6699C72.9351 32.5568 72.9812 32.404 72.9812 32.2113ZM72.0892 34.2591C71.9678 34.2591 71.8506 34.2716 71.7375 34.2968L71.7124 35.7289C71.7752 35.7415 71.8359 35.7541 71.8945 35.7666C71.9573 35.775 72.0181 35.7792 72.0767 35.7792C72.1646 35.7792 72.2609 35.7708 72.3656 35.7541C72.4703 35.7331 72.5687 35.6954 72.6609 35.641C72.753 35.5824 72.8284 35.5049 72.887 35.4086C72.9498 35.3123 72.9812 35.1845 72.9812 35.0254C72.9812 34.8663 72.9498 34.7365 72.887 34.636C72.8284 34.5355 72.7551 34.458 72.6671 34.4035C72.5792 34.3449 72.4829 34.3072 72.3782 34.2905C72.2735 34.2695 72.1772 34.2591 72.0892 34.2591Z" fill="#535862"/>
<path d="M68.7286 37.4875L65.613 37.8895L65.2361 36.4699H63.804L63.4899 37.8895L60.2864 37.5754L62.7864 29.2086L66.2788 29.0327L68.7286 37.4875ZM65.01 34.5478L64.5326 32.3619L64.0678 34.5478H65.01Z" fill="#535862"/>
<path d="M60.211 38.0278L57.0703 38.1785L57.0452 35.2765H55.6005L55.5126 38.0278H52.6985L52.9372 29.1961L55.9271 29.3343L55.7387 33.8444H57.1332L57.1457 28.9951L60.01 29.0705L60.211 38.0278Z" fill="#535862"/>
<path d="M49.8593 33.0403C49.8593 33.6266 49.7839 34.1563 49.6332 34.6295C49.4824 35.0985 49.2709 35.5173 48.9987 35.8858C48.7307 36.2501 48.4104 36.5642 48.0377 36.828C47.665 37.0918 47.2567 37.3096 46.8128 37.4812C46.3689 37.6488 45.8957 37.7744 45.3932 37.8581C44.8949 37.9377 44.3819 37.9775 43.8543 37.9775C43.6574 37.9775 43.4648 37.9733 43.2764 37.9649C43.0879 37.9524 42.8953 37.9356 42.6985 37.9147L42.8744 29.485C43.335 29.3385 43.8082 29.2359 44.294 29.1772C44.7839 29.1144 45.2697 29.083 45.7512 29.083C46.3501 29.083 46.9007 29.173 47.4033 29.3531C47.9058 29.5332 48.3392 29.7928 48.7035 30.132C49.0678 30.4712 49.3505 30.8858 49.5515 31.3757C49.7567 31.8657 49.8593 32.4205 49.8593 33.0403ZM47.2839 33.4423C47.2881 33.2162 47.263 32.9984 47.2085 32.789C47.1583 32.5797 47.0724 32.3954 46.951 32.2363C46.8337 32.073 46.683 31.9431 46.4987 31.8468C46.3145 31.7463 46.0946 31.6919 45.8392 31.6835L45.5879 35.578C45.8392 35.5403 46.0674 35.4586 46.2726 35.333C46.4778 35.2032 46.6537 35.0462 46.8002 34.8619C46.951 34.6735 47.0662 34.4662 47.1457 34.24C47.2295 34.0097 47.2755 33.7731 47.2839 33.5302V33.4423Z" fill="#535862"/>
<path d="M42.3028 33.5929C42.3028 33.9739 42.2589 34.3424 42.1709 34.6984C42.083 35.0501 41.9553 35.381 41.7878 35.6908C41.6244 36.0007 41.4234 36.2855 41.1847 36.5451C40.9502 36.8006 40.6843 37.0204 40.387 37.2047C40.0939 37.3889 39.7735 37.5334 39.4259 37.6381C39.0784 37.7386 38.7099 37.7888 38.3204 37.7888C37.9435 37.7888 37.5834 37.7407 37.24 37.6444C36.9008 37.548 36.5826 37.414 36.2852 37.2424C35.9879 37.0665 35.7178 36.8571 35.4749 36.6142C35.2362 36.3671 35.031 36.0949 34.8594 35.7976C34.6919 35.4961 34.5599 35.1737 34.4636 34.8303C34.3715 34.4869 34.3254 34.1289 34.3254 33.7562C34.3254 33.3918 34.3694 33.0359 34.4573 32.6883C34.5453 32.3366 34.6709 32.0058 34.8342 31.6959C35.0017 31.386 35.2027 31.1012 35.4372 30.8416C35.6718 30.582 35.9335 30.3579 36.2224 30.1695C36.5156 29.981 36.8317 29.8345 37.1709 29.7298C37.5101 29.6251 37.8682 29.5728 38.245 29.5728C38.8522 29.5728 39.405 29.667 39.9033 29.8554C40.4058 30.0439 40.833 30.314 41.1847 30.6657C41.5407 31.0133 41.815 31.4362 42.0076 31.9346C42.2044 32.4287 42.3028 32.9815 42.3028 33.5929ZM39.5139 33.7562C39.5139 33.5761 39.4867 33.4023 39.4322 33.2348C39.382 33.0631 39.3066 32.9124 39.2061 32.7826C39.1056 32.6485 38.98 32.5418 38.8292 32.4622C38.6826 32.3784 38.513 32.3366 38.3204 32.3366C38.1236 32.3366 37.9477 32.3722 37.7928 32.4434C37.6378 32.5145 37.5038 32.613 37.3908 32.7386C37.2819 32.86 37.1981 33.0045 37.1395 33.172C37.0809 33.3353 37.0516 33.5091 37.0516 33.6934C37.0516 33.8692 37.0767 34.0451 37.1269 34.221C37.1772 34.3969 37.2526 34.556 37.3531 34.6984C37.4536 34.8408 37.5771 34.9559 37.7237 35.0439C37.8744 35.1318 38.0482 35.1758 38.245 35.1758C38.4419 35.1758 38.6177 35.1381 38.7727 35.0627C38.9318 34.9831 39.0658 34.8784 39.1747 34.7486C39.2836 34.6146 39.3673 34.4618 39.4259 34.2901C39.4846 34.1184 39.5139 33.9404 39.5139 33.7562Z" fill="#535862"/>
<path d="M34.0992 33.5929C34.0992 33.9739 34.0552 34.3424 33.9673 34.6984C33.8794 35.0501 33.7516 35.381 33.5841 35.6908C33.4208 36.0007 33.2198 36.2855 32.9811 36.5451C32.7466 36.8006 32.4807 37.0204 32.1834 37.2047C31.8903 37.3889 31.5699 37.5334 31.2223 37.6381C30.8748 37.7386 30.5062 37.7888 30.1168 37.7888C29.7399 37.7888 29.3798 37.7407 29.0364 37.6444C28.6972 37.548 28.3789 37.414 28.0816 37.2424C27.7843 37.0665 27.5142 36.8571 27.2713 36.6142C27.0326 36.3671 26.8274 36.0949 26.6557 35.7976C26.4882 35.4961 26.3563 35.1737 26.26 34.8303C26.1679 34.4869 26.1218 34.1289 26.1218 33.7562C26.1218 33.3918 26.1658 33.0359 26.2537 32.6883C26.3417 32.3366 26.4673 32.0058 26.6306 31.6959C26.7981 31.386 26.9991 31.1012 27.2336 30.8416C27.4681 30.582 27.7299 30.3579 28.0188 30.1695C28.3119 29.981 28.6281 29.8345 28.9673 29.7298C29.3065 29.6251 29.6645 29.5728 30.0414 29.5728C30.6486 29.5728 31.2014 29.667 31.6997 29.8554C32.2022 30.0439 32.6294 30.314 32.9811 30.6657C33.3371 31.0133 33.6114 31.4362 33.804 31.9346C34.0008 32.4287 34.0992 32.9815 34.0992 33.5929ZM31.3103 33.7562C31.3103 33.5761 31.283 33.4023 31.2286 33.2348C31.1784 33.0631 31.103 32.9124 31.0025 32.7826C30.902 32.6485 30.7763 32.5418 30.6256 32.4622C30.479 32.3784 30.3094 32.3366 30.1168 32.3366C29.92 32.3366 29.7441 32.3722 29.5892 32.4434C29.4342 32.5145 29.3002 32.613 29.1872 32.7386C29.0783 32.86 28.9945 33.0045 28.9359 33.172C28.8773 33.3353 28.848 33.5091 28.848 33.6934C28.848 33.8692 28.8731 34.0451 28.9233 34.221C28.9736 34.3969 29.049 34.556 29.1495 34.6984C29.25 34.8408 29.3735 34.9559 29.5201 35.0439C29.6708 35.1318 29.8446 35.1758 30.0414 35.1758C30.2382 35.1758 30.4141 35.1381 30.5691 35.0627C30.7282 34.9831 30.8622 34.8784 30.9711 34.7486C31.0799 34.6146 31.1637 34.4618 31.2223 34.2901C31.281 34.1184 31.3103 33.9404 31.3103 33.7562Z" fill="#535862"/>
<path d="M25.8518 36.7465C25.6549 36.9936 25.4121 37.2093 25.1231 37.3935C24.8342 37.5778 24.5243 37.7306 24.1935 37.852C23.8626 37.9735 23.5235 38.0635 23.1759 38.1221C22.8283 38.185 22.4975 38.2164 22.1834 38.2164C21.5762 38.2164 21.0172 38.1075 20.5063 37.8897C19.9954 37.672 19.5536 37.3726 19.1809 36.9915C18.8124 36.6062 18.5235 36.154 18.3141 35.6347C18.1047 35.1154 18 34.5564 18 33.9576C18 33.5011 18.0523 33.0551 18.157 32.6196C18.2617 32.1799 18.4104 31.7675 18.603 31.3822C18.7998 30.9928 19.0385 30.6368 19.3191 30.3144C19.5997 29.9877 19.9179 29.7072 20.2739 29.4727C20.6298 29.2381 21.0193 29.056 21.4422 28.9262C21.8652 28.7964 22.3174 28.7314 22.799 28.7314C22.9791 28.7314 23.1717 28.7398 23.3769 28.7566C23.5821 28.7691 23.7852 28.7943 23.9862 28.8319C24.1914 28.8654 24.3903 28.9136 24.5829 28.9764C24.7755 29.0392 24.9514 29.1167 25.1106 29.2088L24.9347 31.6083C24.7002 31.5204 24.4573 31.4618 24.206 31.4325C23.959 31.3989 23.7161 31.3822 23.4774 31.3822C23.1424 31.3822 22.8283 31.4345 22.5352 31.5392C22.2462 31.6397 21.9929 31.7863 21.7751 31.9789C21.5616 32.1716 21.392 32.4061 21.2663 32.6825C21.1407 32.9588 21.0779 33.2708 21.0779 33.6184C21.0779 33.8361 21.1072 34.0476 21.1658 34.2528C21.2245 34.4538 21.3124 34.6339 21.4296 34.793C21.5511 34.9479 21.6997 35.0736 21.8756 35.1699C22.0557 35.2662 22.263 35.3144 22.4975 35.3144C22.6566 35.3144 22.8199 35.2934 22.9874 35.2515C23.1591 35.2097 23.3057 35.1385 23.4271 35.038L23.4523 34.548L21.9447 34.5229L22.0201 32.6385C22.6441 32.6175 23.268 32.6008 23.892 32.5882C24.5159 32.5715 25.1441 32.5505 25.7764 32.5254L25.8518 36.7465Z" fill="#535862"/>
</svg>
