<svg width="112" height="44" viewBox="0 0 112 44" fill="none" xmlns="http://www.w3.org/2000/svg">
<path d="M102.377 6.70361L102.251 12.0302L98.5076 12.181L98.0553 23.8393L92.7538 24.1157L92.2764 12.4574L88.5327 12.6584L88.6835 6.72874L102.377 6.70361Z" fill="#86CB3C"/>
<path d="M88.3192 6.72852C87.9423 9.67659 87.6199 12.6121 87.3519 15.535C87.0838 18.4496 86.8284 21.3851 86.5855 24.3416L81.4348 24.7185L81.6609 22.7838C81.4934 22.9764 81.2966 23.1439 81.0704 23.2863C80.8527 23.4287 80.6182 23.5459 80.3669 23.6381C80.1157 23.7218 79.856 23.7846 79.588 23.8265C79.32 23.86 79.0646 23.8726 78.8217 23.8642C78.2522 23.8558 77.7162 23.7469 77.2137 23.5376C76.7112 23.3198 76.2505 23.035 75.8318 22.6833C75.413 22.3232 75.0361 21.9086 74.7011 21.4396C74.3661 20.9622 74.0813 20.4639 73.8468 19.9446C73.6207 19.417 73.4448 18.8809 73.3192 18.3366C73.2019 17.7922 73.1433 17.2645 73.1433 16.7536C73.1433 15.9999 73.1559 15.221 73.181 14.417C73.2145 13.6046 73.2689 12.7922 73.3443 11.9798C73.4197 11.1674 73.516 10.3634 73.6333 9.56771C73.7589 8.77207 73.9138 8.00992 74.0981 7.28128C75.1199 7.33153 76.1458 7.37759 77.176 7.41947C78.2061 7.46135 79.2321 7.47391 80.2539 7.45716C80.0612 8.1858 79.8686 8.91863 79.676 9.65565C79.4917 10.3843 79.3242 11.1213 79.1735 11.8667C79.0227 12.6037 78.9013 13.3449 78.8091 14.0903C78.717 14.8357 78.6709 15.5895 78.6709 16.3516C78.6709 16.5275 78.6793 16.7788 78.6961 17.1054C78.7128 17.432 78.7547 17.7545 78.8217 18.0727C78.8971 18.391 79.006 18.6716 79.1483 18.9144C79.2991 19.149 79.5085 19.2662 79.7765 19.2662C80.0947 19.2662 80.3795 19.1322 80.6307 18.8642C80.882 18.5878 81.104 18.2193 81.2966 17.7587C81.4892 17.298 81.6525 16.7662 81.7865 16.1632C81.9289 15.5602 82.0462 14.932 82.1383 14.2788C82.2388 13.6171 82.3184 12.9513 82.377 12.2813C82.4356 11.6113 82.4775 10.9831 82.5026 10.3969C82.5361 9.80222 82.5571 9.27039 82.5654 8.80138C82.5822 8.33237 82.5905 7.96805 82.5905 7.70842C82.5905 7.54091 82.5864 7.37759 82.578 7.21847C82.5696 7.05934 82.557 6.89602 82.5403 6.72852C83.0847 6.74527 83.6249 6.75783 84.1609 6.7662C84.6969 6.77458 85.2371 6.77877 85.7815 6.77877C86.2003 6.77877 86.619 6.77877 87.0378 6.77877C87.4649 6.77039 87.8921 6.75364 88.3192 6.72852Z" fill="#86CB3C"/>
<path d="M72.4648 14.7941C72.4648 15.5563 72.3768 16.2933 72.201 17.0052C72.0251 17.7087 71.7696 18.3703 71.4346 18.9901C71.108 19.6099 70.706 20.1794 70.2286 20.6986C69.7596 21.2095 69.2278 21.6492 68.6331 22.0177C68.0469 22.3862 67.4062 22.6752 66.711 22.8846C66.0159 23.0856 65.2789 23.1861 64.5 23.1861C63.7462 23.1861 63.0259 23.0898 62.3392 22.8971C61.6608 22.7045 61.0242 22.4365 60.4296 22.0931C59.835 21.7413 59.2948 21.3226 58.809 20.8368C58.3316 20.3427 57.9212 19.7983 57.5778 19.2037C57.2428 18.6006 56.979 17.9557 56.7864 17.269C56.6021 16.5822 56.51 15.8661 56.51 15.1207C56.51 14.3921 56.5979 13.6802 56.7738 12.9851C56.9497 12.2815 57.201 11.6199 57.5276 11.0001C57.8626 10.3804 58.2646 9.81086 58.7336 9.29159C59.2026 8.77233 59.7261 8.32426 60.304 7.94737C60.8902 7.57049 61.5226 7.27736 62.201 7.06798C62.8794 6.8586 63.5954 6.75391 64.3492 6.75391C65.5636 6.75391 66.6691 6.94235 67.6658 7.31923C68.6708 7.69612 69.5251 8.23632 70.2286 8.93984C70.9405 9.63498 71.4891 10.4809 71.8743 11.4775C72.268 12.4658 72.4648 13.5713 72.4648 14.7941ZM66.8869 15.1207C66.8869 14.7606 66.8325 14.413 66.7236 14.078C66.6231 13.7346 66.4723 13.4331 66.2713 13.1735C66.0703 12.9055 65.8191 12.6919 65.5175 12.5328C65.2244 12.3653 64.8852 12.2815 64.5 12.2815C64.1063 12.2815 63.7546 12.3527 63.4447 12.4951C63.1348 12.6375 62.8668 12.8343 62.6407 13.0856C62.4229 13.3284 62.2554 13.6174 62.1381 13.9524C62.0209 14.279 61.9623 14.6266 61.9623 14.9951C61.9623 15.3469 62.0125 15.6986 62.113 16.0504C62.2135 16.4021 62.3643 16.7204 62.5653 17.0052C62.7663 17.2899 63.0134 17.5202 63.3065 17.6961C63.608 17.872 63.9556 17.9599 64.3492 17.9599C64.7428 17.9599 65.0946 17.8846 65.4045 17.7338C65.7227 17.5747 65.9907 17.3653 66.2085 17.1057C66.4263 16.8377 66.5938 16.532 66.711 16.1886C66.8283 15.8452 66.8869 15.4893 66.8869 15.1207Z" fill="#86CB3C"/>
<path d="M56.0578 12.3065C56.0578 12.9598 55.9991 13.5544 55.8819 14.0905C55.773 14.6181 55.5971 15.1039 55.3542 15.5477C55.1114 15.9916 54.7973 16.402 54.412 16.7789C54.0268 17.1558 53.5619 17.5159 53.0176 17.8593L56.0075 23.1859L50.3542 24.2915L48.4196 18.9397L46.8618 18.99L46.6357 24.2161H41.2336C41.2755 22.3065 41.3132 20.4054 41.3467 18.5126C41.3886 16.6198 41.4346 14.7186 41.4849 12.809C41.5016 11.8459 41.5184 10.8911 41.5352 9.94472C41.5519 8.99832 41.5854 8.04355 41.6357 7.0804C42.2219 6.86265 42.7998 6.68258 43.3693 6.5402C43.9388 6.39782 44.5083 6.28894 45.0779 6.21357C45.6558 6.12982 46.2378 6.07538 46.8241 6.05025C47.4187 6.01675 48.0259 6 48.6457 6C49.6005 6 50.5217 6.134 51.4095 6.40201C52.3057 6.66164 53.0971 7.05528 53.7839 7.58291C54.4707 8.11055 55.0192 8.76801 55.4296 9.55528C55.8484 10.3425 56.0578 11.2596 56.0578 12.3065ZM50.4296 12.7085C50.4296 12.3568 50.3794 12.0343 50.2789 11.7412C50.1867 11.4481 50.0444 11.1968 49.8517 10.9874C49.6675 10.7697 49.433 10.6022 49.1482 10.4849C48.8718 10.3593 48.5452 10.2965 48.1683 10.2965C48.0008 10.2965 47.8375 10.309 47.6784 10.3342C47.5192 10.3509 47.3643 10.3802 47.2135 10.4221L47.0125 15.0955H47.314C47.6742 15.0955 48.0385 15.0494 48.407 14.9573C48.7839 14.8652 49.1189 14.7228 49.412 14.5302C49.7135 14.3375 49.9564 14.0905 50.1407 13.7889C50.3333 13.4874 50.4296 13.1273 50.4296 12.7085Z" fill="#86CB3C"/>
<path d="M40.6181 12.8341C40.6181 13.6465 40.4967 14.3668 40.2538 14.9949C40.0109 15.623 39.6759 16.1758 39.2488 16.6532C38.83 17.1222 38.3359 17.52 37.7664 17.8467C37.1969 18.1649 36.5855 18.4287 35.9322 18.6381C35.2873 18.8391 34.6173 18.9899 33.9222 19.0904C33.227 19.1825 32.5444 19.2328 31.8744 19.2411V24.5929H26.0201C26.0201 23.6381 26.0201 22.7085 26.0201 21.8039C26.0285 20.8994 26.0327 20.0033 26.0327 19.1155C26.0411 18.2194 26.0453 17.319 26.0453 16.4145C26.0536 15.51 26.062 14.5761 26.0704 13.613C26.0871 12.5912 26.0913 11.5694 26.083 10.5477C26.0746 9.52589 26.0955 8.49574 26.1458 7.45722C27.2178 7.13896 28.2898 6.90026 29.3618 6.74113C30.4339 6.58201 31.5394 6.50244 32.6784 6.50244C33.3233 6.50244 33.9682 6.55688 34.6131 6.66576C35.258 6.76626 35.8736 6.92958 36.4598 7.15571C37.0545 7.38184 37.6031 7.6666 38.1056 8.00998C38.6165 8.34499 39.0562 8.747 39.4247 9.21601C39.7932 9.68502 40.0821 10.221 40.2915 10.824C40.5093 11.4271 40.6181 12.0971 40.6181 12.8341ZM35.0402 13.2612C35.0402 12.7168 34.8727 12.2939 34.5377 11.9924C34.2111 11.6825 33.784 11.5276 33.2563 11.5276C33.0804 11.5276 32.8962 11.5443 32.7036 11.5778C32.5193 11.6029 32.3434 11.6364 32.1759 11.6783L32.0252 15.3467C32.1424 15.3634 32.2555 15.3718 32.3644 15.3718C32.4732 15.3718 32.5863 15.3718 32.7036 15.3718C33.0051 15.3718 33.294 15.3215 33.5704 15.221C33.8551 15.1205 34.1064 14.9782 34.3242 14.7939C34.5419 14.6013 34.7136 14.3793 34.8392 14.1281C34.9732 13.8684 35.0402 13.5795 35.0402 13.2612Z" fill="#86CB3C"/>
<path d="M25.1658 17.9852C25.1658 19.1326 24.9648 20.125 24.5628 20.9626C24.1692 21.7917 23.6248 22.4785 22.9296 23.0229C22.2429 23.5589 21.4347 23.9567 20.505 24.2163C19.5838 24.4676 18.5913 24.5932 17.5276 24.5932C17.1173 24.5932 16.665 24.5388 16.1709 24.4299C15.6851 24.321 15.191 24.187 14.6884 24.0279C14.1859 23.8604 13.7002 23.6845 13.2312 23.5002C12.7705 23.3076 12.3601 23.1276 12 22.96L12.5528 18.0354C13.2647 18.4626 14.0519 18.7892 14.9146 19.0153C15.7856 19.2331 16.6399 19.342 17.4774 19.342C17.6365 19.342 17.8291 19.3378 18.0553 19.3294C18.2814 19.3126 18.495 19.275 18.696 19.2163C18.9054 19.1493 19.0812 19.053 19.2236 18.9274C19.366 18.8018 19.4372 18.6217 19.4372 18.3872C19.4372 18.2281 19.3869 18.0941 19.2864 17.9852C19.1859 17.8679 19.0561 17.7758 18.897 17.7088C18.7379 17.6334 18.5578 17.579 18.3568 17.5455C18.1558 17.5036 17.959 17.4743 17.7663 17.4575C17.5737 17.4408 17.3936 17.4324 17.2261 17.4324C17.0586 17.4324 16.9246 17.4324 16.8241 17.4324C16.1039 17.4324 15.4464 17.3193 14.8518 17.0932C14.2655 16.8671 13.7588 16.5488 13.3317 16.1384C12.9129 15.7197 12.5863 15.2172 12.3518 14.6309C12.1173 14.0363 12 13.3788 12 12.6585C12 11.6703 12.1968 10.7867 12.5905 10.0078C12.9925 9.22052 13.5243 8.55469 14.1859 8.0103C14.8559 7.45754 15.6223 7.03459 16.4849 6.74146C17.3476 6.44832 18.2395 6.30176 19.1608 6.30176C19.5712 6.30176 19.9941 6.31851 20.4296 6.35201C20.8652 6.37713 21.2965 6.42739 21.7236 6.50276C22.1591 6.57814 22.5821 6.67445 22.9925 6.79171C23.4028 6.90896 23.7923 7.05553 24.1608 7.23141L23.6834 12.3319C23.1139 12.1393 22.5151 11.9801 21.8869 11.8545C21.2672 11.7205 20.66 11.6535 20.0653 11.6535C19.9564 11.6535 19.8141 11.6577 19.6382 11.6661C19.4707 11.6661 19.2906 11.6786 19.098 11.7038C18.9137 11.7205 18.7253 11.7498 18.5327 11.7917C18.34 11.8336 18.1683 11.8922 18.0176 11.9676C17.8668 12.0346 17.7454 12.1267 17.6533 12.244C17.5611 12.3612 17.5193 12.4994 17.5276 12.6585C17.536 12.8428 17.603 12.9852 17.7286 13.0857C17.8626 13.1862 18.0302 13.2616 18.2312 13.3118C18.4405 13.3537 18.6667 13.3746 18.9095 13.3746C19.1608 13.3746 19.4079 13.3704 19.6508 13.3621C19.8936 13.3453 20.1198 13.3327 20.3291 13.3244C20.5385 13.3076 20.7102 13.3034 20.8442 13.3118C21.5142 13.3537 22.1173 13.4961 22.6533 13.7389C23.1893 13.9818 23.6415 14.3043 24.01 14.7063C24.3869 15.1083 24.6717 15.5899 24.8643 16.151C25.0653 16.7038 25.1658 17.3152 25.1658 17.9852Z" fill="#86CB3C"/>
<path d="M94.7602 34.6861C94.7602 35.2598 94.6597 35.7623 94.4586 36.1936C94.2618 36.6208 93.9896 36.9767 93.6421 37.2615C93.2987 37.5462 92.8946 37.7598 92.4298 37.9022C91.9691 38.0445 91.4729 38.1157 90.9411 38.1157C90.7359 38.1157 90.5097 38.0885 90.2627 38.0341C90.0198 37.9796 89.7727 37.9126 89.5215 37.8331C89.2702 37.7493 89.0273 37.6614 88.7928 37.5693C88.5625 37.4729 88.3573 37.3829 88.1772 37.2992L88.4536 34.7112C88.8096 34.9248 89.2032 35.0881 89.6345 35.2012C90.07 35.31 90.4972 35.3645 90.9159 35.3645C90.9955 35.3645 91.0918 35.3624 91.2049 35.3582C91.3179 35.3498 91.4247 35.331 91.5252 35.3017C91.6299 35.2682 91.7179 35.22 91.7891 35.1572C91.8602 35.0944 91.8958 35.0043 91.8958 34.8871C91.8958 34.8075 91.8707 34.7405 91.8205 34.6861C91.7702 34.6275 91.7053 34.5814 91.6257 34.5479C91.5462 34.5102 91.4561 34.483 91.3556 34.4662C91.2551 34.4453 91.1567 34.4306 91.0604 34.4223C90.9641 34.4139 90.8741 34.4097 90.7903 34.4097C90.7066 34.4097 90.6396 34.4097 90.5893 34.4097C90.2292 34.4097 89.9004 34.3469 89.6031 34.2213C89.31 34.0956 89.0566 33.9218 88.8431 33.6999C88.6337 33.4738 88.4704 33.2079 88.3531 32.9022C88.2359 32.5923 88.1772 32.2573 88.1772 31.8971C88.1772 31.403 88.2756 30.9612 88.4725 30.5718C88.6735 30.1781 88.9394 29.8452 89.2702 29.573C89.6052 29.2966 89.9884 29.0852 90.4197 28.9386C90.851 28.792 91.297 28.7188 91.7576 28.7188C91.9628 28.7188 92.1743 28.7271 92.3921 28.7439C92.6098 28.7564 92.8255 28.7816 93.0391 28.8193C93.2568 28.8569 93.4683 28.9051 93.6735 28.9637C93.8787 29.0224 94.0734 29.0956 94.2576 29.1836L94.019 31.7338C93.7342 31.6375 93.4348 31.5579 93.1207 31.4951C92.8108 31.4281 92.5072 31.3946 92.2099 31.3946C92.1555 31.3946 92.0843 31.3967 91.9963 31.4009C91.9126 31.4009 91.8225 31.4072 91.7262 31.4198C91.6341 31.4281 91.5399 31.4428 91.4436 31.4637C91.3473 31.4847 91.2614 31.514 91.186 31.5517C91.1107 31.5852 91.0499 31.6312 91.0039 31.6899C90.9578 31.7485 90.9369 31.8176 90.9411 31.8971C90.9453 31.9893 90.9788 32.0646 91.0416 32.1233C91.1086 32.1777 91.1923 32.2217 91.2928 32.2552C91.3975 32.2845 91.5106 32.3054 91.632 32.318C91.7576 32.3306 91.8812 32.3389 92.0026 32.3431C92.1241 32.3431 92.2371 32.3431 92.3418 32.3431C92.4465 32.3389 92.5323 32.341 92.5993 32.3494C92.9344 32.3703 93.2359 32.4415 93.5039 32.563C93.7719 32.6844 93.998 32.8456 94.1823 33.0466C94.3707 33.2476 94.5131 33.4884 94.6094 33.769C94.7099 34.0454 94.7602 34.3511 94.7602 34.6861Z" fill="#86CB3C"/>
<path d="M87.9824 29.0454L87.9196 31.7087L86.0477 31.7841L85.5704 37.7389L82.9196 37.8771L82.9322 31.9223L81.0603 32.0228L81.1357 29.058L87.9824 29.0454Z" fill="#86CB3C"/>
<path d="M80.9032 29.1836L80.2123 37.7389L77.5615 37.8771V29.3595L80.9032 29.1836Z" fill="#86CB3C"/>
<path d="M77.172 35.7917C77.172 36.1393 77.1071 36.4387 76.9773 36.69C76.8517 36.9412 76.6821 37.1548 76.4685 37.3307C76.255 37.5066 76.0079 37.651 75.7273 37.7641C75.4509 37.873 75.162 37.9588 74.8605 38.0216C74.559 38.0845 74.2554 38.1263 73.9497 38.1473C73.6482 38.1682 73.3655 38.1787 73.1017 38.1787C72.8421 38.1787 72.572 38.1682 72.2914 38.1473C72.015 38.1305 71.7386 38.0991 71.4622 38.053C71.1859 38.007 70.9137 37.9463 70.6457 37.8709C70.3776 37.7913 70.1243 37.6929 69.8856 37.5757L69.873 29.4852C70.1076 29.3889 70.3567 29.303 70.6205 29.2277C70.8844 29.1481 71.1524 29.0832 71.4246 29.0329C71.7009 28.9785 71.9752 28.9387 72.2474 28.9136C72.5196 28.8843 72.7834 28.8696 73.0389 28.8696C73.3362 28.8696 73.6356 28.8885 73.9371 28.9262C74.2428 28.9639 74.5359 29.0267 74.8165 29.1146C75.0971 29.2025 75.3588 29.3177 75.6017 29.4601C75.8446 29.5983 76.056 29.77 76.2361 29.9752C76.4204 30.1803 76.5627 30.419 76.6632 30.6912C76.7679 30.9634 76.8203 31.2775 76.8203 31.6334C76.8203 31.868 76.7868 32.0878 76.7198 32.293C76.6528 32.4982 76.5565 32.6824 76.4308 32.8458C76.3052 33.0091 76.1524 33.1494 75.9723 33.2666C75.7922 33.3797 75.5891 33.4634 75.363 33.5179C75.6352 33.5891 75.8823 33.6937 76.1042 33.8319C76.3303 33.9701 76.5209 34.1376 76.6758 34.3345C76.8349 34.5313 76.9564 34.7532 77.0401 35.0003C77.1281 35.2474 77.172 35.5112 77.172 35.7917ZM73.9811 32.2113C73.9811 32.0899 73.956 31.9873 73.9057 31.9035C73.8555 31.8156 73.7926 31.7444 73.7173 31.69C73.6461 31.6355 73.5665 31.5958 73.4786 31.5706C73.3948 31.5455 73.3194 31.5329 73.2524 31.5329C73.1687 31.5329 73.087 31.5455 73.0075 31.5706C72.9279 31.5958 72.8504 31.6251 72.7751 31.6586L72.7374 33.053C72.8337 33.053 72.953 33.0447 73.0954 33.0279C73.2378 33.0112 73.3739 32.9756 73.5037 32.9211C73.6377 32.8625 73.7508 32.7788 73.8429 32.6699C73.935 32.5568 73.9811 32.404 73.9811 32.2113ZM73.0891 34.2591C72.9677 34.2591 72.8504 34.2716 72.7374 34.2968L72.7122 35.7289C72.7751 35.7415 72.8358 35.7541 72.8944 35.7666C72.9572 35.775 73.0179 35.7792 73.0766 35.7792C73.1645 35.7792 73.2608 35.7708 73.3655 35.7541C73.4702 35.7331 73.5686 35.6954 73.6607 35.641C73.7529 35.5824 73.8282 35.5049 73.8869 35.4086C73.9497 35.3123 73.9811 35.1845 73.9811 35.0254C73.9811 34.8663 73.9497 34.7365 73.8869 34.636C73.8282 34.5355 73.755 34.458 73.667 34.4035C73.5791 34.3449 73.4828 34.3072 73.3781 34.2905C73.2734 34.2695 73.1771 34.2591 73.0891 34.2591Z" fill="#86CB3C"/>
<path d="M69.7286 37.4875L66.613 37.8895L66.2361 36.4699H64.804L64.4899 37.8895L61.2864 37.5754L63.7864 29.2086L67.2788 29.0327L69.7286 37.4875ZM66.01 34.5478L65.5326 32.3619L65.0678 34.5478H66.01Z" fill="#86CB3C"/>
<path d="M61.211 38.0278L58.0703 38.1785L58.0452 35.2765H56.6005L56.5126 38.0278H53.6985L53.9372 29.1961L56.9271 29.3343L56.7387 33.8444H58.1332L58.1457 28.9951L61.01 29.0705L61.211 38.0278Z" fill="#86CB3C"/>
<path d="M50.8593 33.0403C50.8593 33.6266 50.7839 34.1563 50.6332 34.6295C50.4824 35.0985 50.2709 35.5173 49.9987 35.8858C49.7307 36.2501 49.4104 36.5642 49.0377 36.828C48.665 37.0918 48.2567 37.3096 47.8128 37.4812C47.3689 37.6488 46.8957 37.7744 46.3932 37.8581C45.8949 37.9377 45.3819 37.9775 44.8543 37.9775C44.6574 37.9775 44.4648 37.9733 44.2764 37.9649C44.0879 37.9524 43.8953 37.9356 43.6985 37.9147L43.8744 29.485C44.335 29.3385 44.8082 29.2359 45.294 29.1772C45.7839 29.1144 46.2697 29.083 46.7512 29.083C47.3501 29.083 47.9007 29.173 48.4033 29.3531C48.9058 29.5332 49.3392 29.7928 49.7035 30.132C50.0678 30.4712 50.3505 30.8858 50.5515 31.3757C50.7567 31.8657 50.8593 32.4205 50.8593 33.0403ZM48.2839 33.4423C48.2881 33.2162 48.263 32.9984 48.2085 32.789C48.1583 32.5797 48.0724 32.3954 47.951 32.2363C47.8337 32.073 47.683 31.9431 47.4987 31.8468C47.3145 31.7463 47.0946 31.6919 46.8392 31.6835L46.5879 35.578C46.8392 35.5403 47.0674 35.4586 47.2726 35.333C47.4778 35.2032 47.6537 35.0462 47.8002 34.8619C47.951 34.6735 48.0662 34.4662 48.1457 34.24C48.2295 34.0097 48.2755 33.7731 48.2839 33.5302V33.4423Z" fill="#86CB3C"/>
<path d="M43.3028 33.5929C43.3028 33.9739 43.2589 34.3424 43.1709 34.6984C43.083 35.0501 42.9553 35.381 42.7878 35.6908C42.6244 36.0007 42.4234 36.2855 42.1847 36.5451C41.9502 36.8006 41.6843 37.0204 41.387 37.2047C41.0939 37.3889 40.7735 37.5334 40.4259 37.6381C40.0784 37.7386 39.7099 37.7888 39.3204 37.7888C38.9435 37.7888 38.5834 37.7407 38.24 37.6444C37.9008 37.548 37.5826 37.414 37.2852 37.2424C36.9879 37.0665 36.7178 36.8571 36.4749 36.6142C36.2362 36.3671 36.031 36.0949 35.8594 35.7976C35.6919 35.4961 35.5599 35.1737 35.4636 34.8303C35.3715 34.4869 35.3254 34.1289 35.3254 33.7562C35.3254 33.3918 35.3694 33.0359 35.4573 32.6883C35.5453 32.3366 35.6709 32.0058 35.8342 31.6959C36.0017 31.386 36.2027 31.1012 36.4372 30.8416C36.6718 30.582 36.9335 30.3579 37.2224 30.1695C37.5156 29.981 37.8317 29.8345 38.1709 29.7298C38.5101 29.6251 38.8682 29.5728 39.245 29.5728C39.8522 29.5728 40.405 29.667 40.9033 29.8554C41.4058 30.0439 41.833 30.314 42.1847 30.6657C42.5407 31.0133 42.815 31.4362 43.0076 31.9346C43.2044 32.4287 43.3028 32.9815 43.3028 33.5929ZM40.5139 33.7562C40.5139 33.5761 40.4867 33.4023 40.4322 33.2348C40.382 33.0631 40.3066 32.9124 40.2061 32.7826C40.1056 32.6485 39.98 32.5418 39.8292 32.4622C39.6826 32.3784 39.513 32.3366 39.3204 32.3366C39.1236 32.3366 38.9477 32.3722 38.7928 32.4434C38.6378 32.5145 38.5038 32.613 38.3908 32.7386C38.2819 32.86 38.1981 33.0045 38.1395 33.172C38.0809 33.3353 38.0516 33.5091 38.0516 33.6934C38.0516 33.8692 38.0767 34.0451 38.1269 34.221C38.1772 34.3969 38.2526 34.556 38.3531 34.6984C38.4536 34.8408 38.5771 34.9559 38.7237 35.0439C38.8744 35.1318 39.0482 35.1758 39.245 35.1758C39.4419 35.1758 39.6177 35.1381 39.7727 35.0627C39.9318 34.9831 40.0658 34.8784 40.1747 34.7486C40.2836 34.6146 40.3673 34.4618 40.4259 34.2901C40.4846 34.1184 40.5139 33.9404 40.5139 33.7562Z" fill="#86CB3C"/>
<path d="M35.0992 33.5929C35.0992 33.9739 35.0552 34.3424 34.9673 34.6984C34.8794 35.0501 34.7516 35.381 34.5841 35.6908C34.4208 36.0007 34.2198 36.2855 33.9811 36.5451C33.7466 36.8006 33.4807 37.0204 33.1834 37.2047C32.8903 37.3889 32.5699 37.5334 32.2223 37.6381C31.8748 37.7386 31.5062 37.7888 31.1168 37.7888C30.7399 37.7888 30.3798 37.7407 30.0364 37.6444C29.6972 37.548 29.3789 37.414 29.0816 37.2424C28.7843 37.0665 28.5142 36.8571 28.2713 36.6142C28.0326 36.3671 27.8274 36.0949 27.6557 35.7976C27.4882 35.4961 27.3563 35.1737 27.26 34.8303C27.1679 34.4869 27.1218 34.1289 27.1218 33.7562C27.1218 33.3918 27.1658 33.0359 27.2537 32.6883C27.3417 32.3366 27.4673 32.0058 27.6306 31.6959C27.7981 31.386 27.9991 31.1012 28.2336 30.8416C28.4681 30.582 28.7299 30.3579 29.0188 30.1695C29.3119 29.981 29.6281 29.8345 29.9673 29.7298C30.3065 29.6251 30.6645 29.5728 31.0414 29.5728C31.6486 29.5728 32.2014 29.667 32.6997 29.8554C33.2022 30.0439 33.6294 30.314 33.9811 30.6657C34.3371 31.0133 34.6114 31.4362 34.804 31.9346C35.0008 32.4287 35.0992 32.9815 35.0992 33.5929ZM32.3103 33.7562C32.3103 33.5761 32.283 33.4023 32.2286 33.2348C32.1784 33.0631 32.103 32.9124 32.0025 32.7826C31.902 32.6485 31.7763 32.5418 31.6256 32.4622C31.479 32.3784 31.3094 32.3366 31.1168 32.3366C30.92 32.3366 30.7441 32.3722 30.5892 32.4434C30.4342 32.5145 30.3002 32.613 30.1872 32.7386C30.0783 32.86 29.9945 33.0045 29.9359 33.172C29.8773 33.3353 29.848 33.5091 29.848 33.6934C29.848 33.8692 29.8731 34.0451 29.9233 34.221C29.9736 34.3969 30.049 34.556 30.1495 34.6984C30.25 34.8408 30.3735 34.9559 30.5201 35.0439C30.6708 35.1318 30.8446 35.1758 31.0414 35.1758C31.2382 35.1758 31.4141 35.1381 31.5691 35.0627C31.7282 34.9831 31.8622 34.8784 31.9711 34.7486C32.0799 34.6146 32.1637 34.4618 32.2223 34.2901C32.281 34.1184 32.3103 33.9404 32.3103 33.7562Z" fill="#86CB3C"/>
<path d="M26.8518 36.7465C26.6549 36.9936 26.4121 37.2093 26.1231 37.3935C25.8342 37.5778 25.5243 37.7306 25.1935 37.852C24.8626 37.9735 24.5235 38.0635 24.1759 38.1221C23.8283 38.185 23.4975 38.2164 23.1834 38.2164C22.5762 38.2164 22.0172 38.1075 21.5063 37.8897C20.9954 37.672 20.5536 37.3726 20.1809 36.9915C19.8124 36.6062 19.5235 36.154 19.3141 35.6347C19.1047 35.1154 19 34.5564 19 33.9576C19 33.5011 19.0523 33.0551 19.157 32.6196C19.2617 32.1799 19.4104 31.7675 19.603 31.3822C19.7998 30.9928 20.0385 30.6368 20.3191 30.3144C20.5997 29.9877 20.9179 29.7072 21.2739 29.4727C21.6298 29.2381 22.0193 29.056 22.4422 28.9262C22.8652 28.7964 23.3174 28.7314 23.799 28.7314C23.9791 28.7314 24.1717 28.7398 24.3769 28.7566C24.5821 28.7691 24.7852 28.7943 24.9862 28.8319C25.1914 28.8654 25.3903 28.9136 25.5829 28.9764C25.7755 29.0392 25.9514 29.1167 26.1106 29.2088L25.9347 31.6083C25.7002 31.5204 25.4573 31.4618 25.206 31.4325C24.959 31.3989 24.7161 31.3822 24.4774 31.3822C24.1424 31.3822 23.8283 31.4345 23.5352 31.5392C23.2462 31.6397 22.9929 31.7863 22.7751 31.9789C22.5616 32.1716 22.392 32.4061 22.2663 32.6825C22.1407 32.9588 22.0779 33.2708 22.0779 33.6184C22.0779 33.8361 22.1072 34.0476 22.1658 34.2528C22.2245 34.4538 22.3124 34.6339 22.4296 34.793C22.5511 34.9479 22.6997 35.0736 22.8756 35.1699C23.0557 35.2662 23.263 35.3144 23.4975 35.3144C23.6566 35.3144 23.8199 35.2934 23.9874 35.2515C24.1591 35.2097 24.3057 35.1385 24.4271 35.038L24.4523 34.548L22.9447 34.5229L23.0201 32.6385C23.6441 32.6175 24.268 32.6008 24.892 32.5882C25.5159 32.5715 26.1441 32.5505 26.7764 32.5254L26.8518 36.7465Z" fill="#86CB3C"/>
</svg>
